<?xml version="1.0" encoding="UTF-8"?>
<svg width="152px" height="123px" viewBox="0 0 152 123" version="1.1" xmlns="http://www.w3.org/2000/svg" xmlns:xlink="http://www.w3.org/1999/xlink">
    <!-- Generator: Sketch 52.5 (67469) - http://www.bohemiancoding.com/sketch -->
    <title>bg-my-list</title>
    <desc>Created with Sketch.</desc>
    <g id="Page-1" stroke="none" stroke-width="1" fill="none" fill-rule="evenodd" opacity="0.201357">
        <g id="Dashboard-Light" transform="translate(-120.000000, -429.000000)">
            <g id="Invites-section" transform="translate(22.000000, 359.000000)">
                <g id="Item" transform="translate(0.000000, 43.000000)">
                    <g id="bg-invited-list">
                        <g id="bg-my-list" transform="translate(98.000000, 27.000000)">
                            <g id="Page-1">
                                <g id="Dashboard">
                                    <g id="item-copy">
                                        <g id="26-gifts-left-+-Public-list-+-Marco-Laurea-+-gift-+-lock-+-chevron-right-+-gift-on-the-way-2561022-0-Mask">
                                            <g id="gift-on-the-way-2561022-0">
                                                <g id="Group">
                                                    <path d="M33.0449496,33.6017012 C32.4046375,33.8497822 31.989065,34.4540408 32.0002191,35.1207799 C32.0113732,35.787519 32.4469408,36.3784723 33.0952163,36.6064097 C41.652542,39.6023606 57.0142873,43.3418611 74.3405265,38.96701 C79.7740089,37.5951724 93.6803572,33.8873124 103.570043,21.7568894 C106.604751,18.0346217 109.381695,14.628758 108.353273,12.7670592 C106.381765,9.19903845 90.4399068,11.305668 33.0449496,33.6017012" id="Path" fill="#EDF2FA"></path>
                                                    <path d="M14.4556429,48.9622489 C7.77000552,55.4425753 13.6421231,71.2289886 17.8632488,78.5412838 C19.7927248,81.884113 25.5687438,91.8901695 37.0720109,95.0673527 C48.6520416,98.2655292 53.2893061,91.0225408 66.7537936,91.6854126 C85.0284077,92.5849626 87.0447477,106.448329 101.449155,106.951594 C118.611276,107.551773 138.028959,88.6528821 144.013927,68.8159053 C150.24591,48.1619139 143.018022,22.8367615 130.107328,19.62967 C123.804931,18.0640848 120.533249,22.85833 94.3038024,36.3429535 C77.4822113,44.9913451 69.0717044,49.3156846 62.2094533,50.6969311 C36.7834264,55.8149913 22.1562319,41.4983991 14.4556429,48.9622489" id="Path" fill="#EDF2FA"></path>
                                                    <path d="M87.2466426,61.1528843 C87.32194,61.0167738 87.2671665,60.8483021 87.1242819,60.7765285 L84.0198898,59.216464 L83.2315704,56.6904195 L85.8292484,57.9962348 C85.9150848,58.0393557 86.0177805,58.0391641 86.1034389,57.9957233 C86.1890974,57.9522824 86.2465844,57.8712388 86.2569256,57.7793423 L86.2806366,57.5688618 C86.2839614,57.5398399 86.2825792,57.5105036 86.2765384,57.4818818 L85.6937148,54.82704 L88.1719593,56.1058135 L88.8560672,59.2231547 C88.8896905,59.3734774 89.0446836,59.4695553 89.202626,59.4379815 C89.3605684,59.4064077 89.4619139,59.2590859 89.4292307,59.1085753 L88.8466999,56.4537335 L89.7187398,56.9036878 C89.6655829,57.1399243 89.7331304,57.3861749 89.9008173,57.5674679 C90.6159545,58.4007476 91.976852,57.3433271 91.2602512,56.5089324 C91.1148159,56.3322255 90.897498,56.2225669 90.662298,56.2072052 C90.4270981,56.1918434 90.1960953,56.2722207 90.0266908,56.4283643 L89.106936,55.9538772 L91.8875697,55.135373 C92.0418066,55.0896421 92.1280531,54.9336258 92.0803483,54.7866447 C92.0326435,54.6396637 91.8689978,54.557209 91.7145668,54.6023417 L88.3871152,55.5822607 L85.9539509,54.326905 L88.7342919,53.5084008 C88.8269426,53.4810406 88.8993725,53.4117882 88.9277348,53.3234443 C88.9560972,53.2351004 88.9367161,53.1391144 88.8759728,53.0670887 L88.736341,52.9026073 L88.7351701,52.9009346 C88.7162751,52.8787885 88.6938534,52.8595987 88.6687206,52.8440631 L86.2744893,51.3525789 L89.0808831,50.5583288 L91.9464082,52.2064885 C92.0847167,52.2861664 92.2646611,52.2439789 92.3483252,52.1122601 C92.4319893,51.9805412 92.3876913,51.8091703 92.2493828,51.7294923 L89.8399297,50.3433878 L90.9865495,50.0188854 C90.9950387,50.0297579 90.9997223,50.0409092 91.0093824,50.0517817 C91.7245196,50.8847826 93.0854171,49.8276409 92.369109,48.9929674 C91.8129238,48.3450778 90.8703361,48.8410311 90.8138394,49.4858541 L89.5905245,49.8321014 L90.8688724,47.3082872 C90.9143133,47.2186479 90.906088,47.1127304 90.8472948,47.0304327 C90.7885016,46.948135 90.6880727,46.9019602 90.5838386,46.9093019 C90.4796045,46.9166435 90.3874009,46.9763863 90.3419601,47.0660256 L88.8317707,50.0470424 L86.1047064,50.8187112 L87.4565294,48.3785317 C87.5015742,48.2967921 87.5013551,48.1991471 87.4559439,48.1175916 C87.4113166,48.0353338 87.3258599,47.980307 87.2290789,47.9715098 L87.0080684,47.9489285 C86.9775728,47.9456647 86.946722,47.9471714 86.9167369,47.953389 L84.1238087,48.5092804 L85.466557,46.1488325 L88.7448301,45.4962037 C88.9031049,45.4646404 89.0045447,45.3168595 88.9714024,45.1661257 C88.9382601,45.0153919 88.7830859,44.9187851 88.6248112,44.9503484 L85.8321756,45.5065186 L86.3406461,44.6121857 C86.992261,44.6283551 87.6248486,43.8767586 87.0868125,43.2503352 C86.3716754,42.4167768 85.0107778,43.4741972 85.7273786,44.3088708 C85.7517507,44.3349598 85.7776496,44.3597179 85.8049518,44.3830268 L85.3105324,45.2525481 L84.4525434,42.609694 C84.4042388,42.4632382 84.2407153,42.3815164 84.0867207,42.4268721 C83.932726,42.4722277 83.8461942,42.6275976 83.8931381,42.7744542 L84.9203245,45.9383521 L83.6024581,48.25531 L82.7441764,45.612177 C82.7119718,45.5127755 82.6242313,45.4387866 82.5167259,45.420375 L82.2901536,45.3810667 C82.1707024,45.3607126 82.0504127,45.4124523 81.9874717,45.5112579 L80.4831369,47.8839722 L79.6869138,45.3328374 L81.4667067,42.5266169 C81.5503708,42.3948211 81.5060072,42.2233877 81.3676179,42.1437097 C81.2292285,42.0640318 81.0492186,42.1062816 80.9655545,42.2380775 L79.4612197,44.6102342 L79.1696615,43.676593 C79.3659859,43.5504044 79.4965024,43.3504834 79.5284722,43.1269782 C79.5604419,42.903473 79.4908316,42.677589 79.3371025,42.505987 C78.6216726,41.6724286 77.2607751,42.7298491 77.9773759,43.5648014 C78.1297031,43.7553796 78.3669605,43.867015 78.6184526,43.8664436 L78.8877634,44.7303893 L76.324042,43.5522562 C76.1785391,43.4853575 76.0036405,43.5434589 75.933395,43.6820293 C75.8631495,43.8205997 75.9241575,43.9871653 76.0696604,44.054064 L79.1134575,45.4532712 L79.9096806,48.0038485 L77.3453738,46.8259942 C77.2499336,46.7818055 77.1368261,46.7904529 77.0500101,46.8485756 L76.8641271,46.9729124 C76.7653295,47.0390655 76.7192981,47.1561889 76.7482064,47.2678638 L77.4393398,49.9338569 L74.9824645,48.6662348 L74.1637013,45.507355 C74.1249005,45.3578529 73.9661877,45.2666132 73.8092063,45.3035653 C73.652225,45.3405174 73.5564206,45.4916683 73.5952214,45.6411704 L74.2866475,48.3071634 L73.4608587,47.8814632 C73.5114537,47.647096 73.443605,47.4037018 73.2776103,47.224095 C72.5621804,46.3905366 71.2012828,47.4479571 71.9178837,48.2823518 C72.064092,48.4598915 72.2827954,48.5697037 72.5192177,48.584285 C72.7556401,48.5988663 72.9873888,48.5168355 73.1564204,48.3587381 L74.0012366,48.7944745 L71.2888088,49.6960558 C71.1899069,49.7286967 71.1168422,49.8091597 71.0971939,49.9070729 C71.0775456,50.0049861 71.1143062,50.1054378 71.1935998,50.170511 C71.2728934,50.2355842 71.3826439,50.2553686 71.4814246,50.2223964 L74.6973464,49.1535458 L77.1545144,50.421168 L74.4417939,51.323028 C74.3415868,51.3560423 74.2680691,51.4382245 74.2497636,51.5376902 L74.2102452,51.7509585 C74.1896907,51.8643042 74.2440299,51.9780882 74.3472424,52.0378253 L76.8047031,53.4512505 L74.2281017,54.1808232 L71.3737003,52.4024723 C71.2384318,52.3194695 71.0581764,52.3560215 70.9701463,52.4843043 C70.8821161,52.6125872 70.9193274,52.7844877 71.0534546,52.8691535 L73.4930589,54.3887946 L72.4608961,54.6809582 C72.4465524,54.6611647 72.4360141,54.6408136 72.4193286,54.6212989 C71.7038987,53.7880192 70.3430011,54.8451609 71.0596019,55.6801132 C71.6064199,56.3171303 72.5276384,55.8484976 72.6125298,55.219844 L73.590245,54.9430134 L72.2650604,57.3341273 C72.2105113,57.4333357 72.2232922,57.5539581 72.2975533,57.6407876 C72.3225225,57.6695675 72.3531482,57.6934311 72.3877138,57.7110407 C72.5307956,57.782748 72.7078248,57.7304599 72.7831909,57.594231 L74.3750517,54.7208241 L76.9815115,53.9831667 L75.7274601,56.4587516 C75.6811589,56.5496012 75.690353,56.6572359 75.7514639,56.7397639 L75.8817283,56.9167905 L75.8946084,56.9332387 C75.9663427,57.016495 76.0819519,57.0530508 76.1917284,57.0271883 L78.9861203,56.3703777 L77.6550812,58.7104745 L74.3428515,59.4888341 C74.2413546,59.5127877 74.1609861,59.5864898 74.1320199,59.6821775 C74.1030537,59.7778653 74.1298905,59.8810014 74.2024212,59.9527356 C74.2749519,60.0244697 74.3821573,60.0539037 74.4836542,60.0299501 L77.2777534,59.3731395 L76.8512471,60.1230633 C76.1767992,60.0489073 75.4789331,60.8278244 76.0357038,61.4768291 C76.7511337,62.30983 78.1120313,61.2524095 77.3954304,60.4180147 C77.3860631,60.4071422 77.3752321,60.3998939 77.3658648,60.389579 L77.7929566,59.6388188 L78.7413988,62.2267529 C78.7756727,62.3209427 78.8601611,62.3905263 78.9629728,62.4092384 C79.0657844,62.4279505 79.1712615,62.3929414 79.2395903,62.3174258 C79.307919,62.2419101 79.3286932,62.1373886 79.2940713,62.0433143 L78.1699916,58.975875 L79.5010308,56.6357782 L80.4494731,59.2242699 C80.4811766,59.3104556 80.5551789,59.3763985 80.6475816,59.4008029 C80.7399843,59.4252072 80.8390787,59.4049807 80.9128632,59.3466552 L81.0832316,59.212561 C81.1054623,59.194557 81.1248807,59.1736231 81.1408992,59.1503926 L82.6862161,56.9009 L83.489172,59.4740586 L81.6724952,62.1188642 C81.5843423,62.2477248 81.6224316,62.4202322 81.7576137,62.5043679 C81.8927957,62.5885035 82.0739873,62.5524737 82.1625237,62.4238518 L83.7078406,60.1743592 L84.0026188,61.1180366 C83.8097016,61.245666 83.6824845,61.4450651 83.6524226,61.6669317 C83.6223606,61.8887982 83.69226,62.1124213 83.8448378,62.2825093 C84.5602677,63.115789 85.9211653,62.0583685 85.2048572,61.223695 C85.0501935,61.0301968 84.8079623,60.9184757 84.5526568,60.9228891 L84.2531949,59.9641575 L86.8514583,61.2694152 C86.9200744,61.3039436 87.0002935,61.3110626 87.0744269,61.2892023 C87.1485604,61.267342 87.2105197,61.2182979 87.2466426,61.1528843 Z M85.630778,57.2658257 L82.9982653,55.9430047 L82.0656304,52.9552971 L85.0189742,54.4788412 L85.630778,57.2658257 Z M88.0516476,53.1259118 L85.2338374,53.9555672 L82.344894,52.4646407 L85.5394466,51.5605504 L88.0516476,53.1259118 Z M86.6898719,48.5681035 L85.319607,51.0411793 L82.1780384,51.9302154 L83.7584827,49.1518732 L86.6898719,48.5681035 Z M82.2924954,46.1086879 L83.2122503,48.9411139 L81.6628352,51.6645361 L80.7085383,48.6065754 L82.2924954,46.1086879 Z M77.4042123,47.4716535 L80.135082,48.7264517 L81.1016735,51.8237206 L78.1354496,50.2929282 L77.4042123,47.4716535 Z M74.9622662,51.7403648 L77.8506242,50.7802393 L80.8227027,52.3138196 L77.5637497,53.2365883 L74.9622662,51.7403648 Z M76.4057134,56.4024376 L77.740558,53.7682257 L80.9892655,52.8485236 L79.3631554,55.7074339 L76.4057134,56.4024376 Z M80.8332409,58.5794469 L79.8780659,55.9728344 L81.5044687,53.1142029 L82.4678402,56.2005994 L80.8332409,58.5794469 Z" id="Shape" fill="#E4EBF1" fill-rule="nonzero"></path>
                                                    <path d="M65.7142857,56.8965517 C66.0330279,56.8859305 66.2857143,56.6343333 66.2857143,56.3275862 C66.2857143,56.0208391 66.0330279,55.7692419 65.7142857,55.7586207 C65.3955435,55.7692419 65.1428571,56.0208391 65.1428571,56.3275862 C65.1428571,56.6343333 65.3955435,56.8859305 65.7142857,56.8965517" id="Path" fill="#FFFFFF"></path>
                                                    <path d="M46.2857512,34.137931 C47.0469164,34.137931 47.0482967,33 46.2857512,33 C45.5243889,33 45.5232057,34.137931 46.2857512,34.137931" id="Path" fill="#FFFFFF"></path>
                                                    <path d="M40.5714286,67.137931 C41.332643,67.137931 41.3340234,66 40.5714286,66 C39.8102142,66 39.8088337,67.137931 40.5714286,67.137931" id="Path" fill="#FFFFFF"></path>
                                                    <path d="M101.14282,56.8965517 C101.904183,56.8965517 101.905366,55.7586207 101.14282,55.7586207 C100.381655,55.7586207 100.380275,56.8965517 101.14282,56.8965517" id="Path" fill="#FFFFFF"></path>
                                                    <path d="M60,23.8965517 C60.7612144,23.8965517 60.7625948,22.7586207 60,22.7586207 C59.2387856,22.7586207 59.2374052,23.8965517 60,23.8965517" id="Path" fill="#FFFFFF"></path>
                                                    <path d="M33.7142488,108.103448 C34.4756111,108.103448 34.4767943,106.965517 33.7142488,106.965517 C32.9530836,106.965517 32.9517033,108.103448 33.7142488,108.103448" id="Path" fill="#FFFFFF"></path>
                                                    <path d="M118.285714,93.3103448 C119.046929,93.3103448 119.048309,92.1724138 118.285714,92.1724138 C117.5245,92.1724138 117.523119,93.3103448 118.285714,93.3103448" id="Path" fill="#FFFFFF"></path>
                                                    <path d="M69.1428202,81.9310345 C69.9041825,81.9310345 69.9053657,80.7931034 69.1428202,80.7931034 C68.381655,80.7931034 68.3802747,81.9310345 69.1428202,81.9310345" id="Path" fill="#FFFFFF"></path>
                                                    <path d="M24,121.758621 L24,115.541693 C23.9999196,107.393029 30.3766814,100.629777 38.6070121,100.049363 L57.1479568,98.7413378 L62.5509687,85.3430549 C63.3049991,83.4730928 65.1269484,81.8680109 67.1638778,81.9329381 L96.1553582,83.2544661 C103.841971,83.4983587 110.011705,89.6025539 110.244556,97.1940009 L110.422009,102.979421 L116.571488,109.691346 C118.042517,111.297313 118.857077,113.385634 118.857143,115.551174 L118.857143,121.758621 L24,121.758621 Z" id="Path" fill="#EF403A"></path>
                                                    <path d="M116.583627,109.691346 L110.467877,102.979421 L110.291389,97.1940009 C110.0597,89.6025983 103.923574,83.4984614 96.278803,83.2544661 L89.875174,83.0499166 L88.1493507,82.8818527 L67.4449685,81.9329381 C65.4191152,81.8680109 63.6070731,83.4730928 62.8571429,85.3430549 C62.8571429,85.3430549 65.2229529,82.5569292 69.1117695,82.9344265 C71.4819194,83.1645448 76.7947933,83.6494881 81.4728883,84.2122866 C86.6244035,84.825694 91.171171,87.8450396 93.7095975,92.3382474 C95.6274141,95.7764599 97.1239323,99.4302279 98.1672269,103.221605 C100.720519,112.349054 106.554757,118.515993 110.399596,121.758621 L118.857143,121.758621 L118.857143,115.550887 C118.857185,113.38536 118.046919,111.29706 116.583627,109.691346" id="Path" fill="#C72932"></path>
                                                    <rect id="Rectangle" fill="#C72932" x="115.428571" y="109.241379" width="4.57142857" height="5.68965517"></rect>
                                                    <path d="M119.492786,119.482759 L22.2214995,119.482759 C21.941373,119.482759 21.7142857,119.228024 21.7142857,118.913793 C21.7142857,118.599562 21.941373,118.344828 22.2214995,118.344828 L119.492786,118.344828 C119.772913,118.344828 120,118.599562 120,118.913793 C120,119.228024 119.772913,119.482759 119.492786,119.482759 Z" id="Path" fill="#FFFFFF"></path>
                                                    <path d="M84.1661721,99 L64,99 C64.0000998,91.4583838 69.9443186,85.3447673 77.2768114,85.3448276 L83.9634004,85.3448276 C84.1246639,85.3448127 84.2793267,85.4106949 84.3933572,85.5279776 C84.5073877,85.6452603 84.571443,85.804334 84.5714286,85.9701968 L84.5714286,98.5831855 C84.5714407,98.6937354 84.5287481,98.7997611 84.4527451,98.8779317 C84.3767422,98.9561023 84.2736565,99.0000125 84.1661721,99" id="Path" fill="#F0EFEF"></path>
                                                    <path d="M104,99 L87.2861317,99 C87.1723531,99.0000117 87.0632311,98.9561012 86.9827775,98.8779308 C86.9023238,98.7997604 86.8571308,98.6937352 86.8571429,98.5831855 L86.8571429,85.9701968 C86.8570758,85.6249031 87.1450953,85.3449253 87.5004744,85.3448276 L89.9459842,85.3448276 C97.7077292,85.3450003 103.999822,91.458528 104,99" id="Path" fill="#F0EFEF"></path>
                                                    <path d="M104,99 C103.999959,91.4585893 98.0825627,85.3450329 90.7829687,85.3448276 L88.4831008,85.3448276 C88.2924975,85.3454145 88.1133761,85.4390359 88,85.5973297 C90.3822193,87.0753573 92.3496232,89.1703676 93.7075556,91.675079 C94.9712192,94.0216127 96.046017,96.4715043 96.9210893,99 L104,99 Z" id="Path" fill="#DCDBDB"></path>
                                                    <path d="M83.9634004,117.206897 L64.6080282,117.206897 C64.4467642,117.206913 64.2921006,117.139401 64.1780697,117.019215 C64.0640388,116.899028 63.999984,116.736016 64,116.566047 L64,100.778781 C63.9999848,100.608812 64.0640398,100.4458 64.1780705,100.325614 C64.2921012,100.205428 64.4467644,100.137915 64.6080282,100.137931 L83.9634004,100.137931 C84.1246642,100.137915 84.2793273,100.205428 84.393358,100.325614 C84.5073887,100.4458 84.5714438,100.608812 84.5714286,100.778781 L84.5714286,116.566047 C84.5714438,116.736016 84.5073887,116.899028 84.393358,117.019214 C84.2793273,117.1394 84.1246642,117.206913 83.9634004,117.206897" id="Path" fill="#F6978F"></path>
                                                    <path d="M56,118.3445 C56.0000589,123.407204 52.9371951,127.971431 48.2396296,129.908871 C43.5420641,131.846311 38.1349123,130.775414 34.5395427,127.195542 C30.9441731,123.615669 29.86864,118.231824 31.8144672,113.554507 C33.7602944,108.877189 38.3442804,105.827528 43.4289009,105.827586 C46.7629746,105.827551 49.9605035,107.146282 52.3180496,109.493666 C54.6755958,111.84105 56.0000356,115.024797 56,118.3445" id="Path" fill="#4C4C4B"></path>
                                                    <path d="M49.1428571,117.775862 C49.1428571,120.603941 46.5844843,122.896552 43.4285714,122.896552 C40.2726586,122.896552 37.7142857,120.603941 37.7142857,117.775862 C37.7142857,114.947783 40.2726586,112.655172 43.4285714,112.655172 C46.5844507,112.655245 49.1427761,114.947813 49.1428571,117.775862" id="Path" fill="#000000"></path>
                                                    <path d="M45.7142857,118.344794 C45.7142857,119.265281 45.1573974,120.095131 44.303297,120.447386 C43.4491966,120.799641 42.4660845,120.604931 41.8123844,119.954048 C41.1586842,119.303166 40.9631311,118.324291 41.3169111,117.473872 C41.670691,116.623453 42.5041332,116.068966 43.4286048,116.068966 C44.6909283,116.069021 45.7142297,117.087912 45.7142857,118.344794" id="Path" fill="#4C4C4B"></path>
                                                    <path d="M110.857143,118.344502 C110.857201,123.407206 107.794336,127.971432 103.096771,129.908872 C98.3992059,131.846311 92.9920548,130.775413 89.3966855,127.195542 C85.8013163,123.61567 84.7257831,118.231825 86.6716095,113.554508 C88.617436,108.877191 93.201421,105.827529 98.2860409,105.827586 C105.228857,105.827614 110.857114,111.431612 110.857143,118.344502" id="Path" fill="#4C4C4B"></path>
                                                    <path d="M104,117.775996 C103.999917,120.604075 101.441477,122.896626 98.2855645,122.896552 C95.1296516,122.896478 92.5713459,120.603807 92.5714286,117.775728 C92.5715113,114.947649 95.1299512,112.655098 98.2858641,112.655172 C101.441767,112.655269 104.000058,114.947927 104,117.775996" id="Path" fill="#000000"></path>
                                                    <path d="M100.571429,118.344644 C100.57149,119.265158 100.014624,120.095064 99.1605095,120.447357 C98.3063954,120.799651 97.3232468,120.60495 96.6695272,119.954048 C96.0158077,119.303147 95.8202641,118.324236 96.1740827,117.473803 C96.5279014,116.62337 97.3613994,116.068905 98.2858984,116.068966 C99.548138,116.069023 100.571371,117.087845 100.571429,118.344644" id="Path" fill="#4C4C4B"></path>
                                                    <rect id="Rectangle" fill="#C72932" x="66.2857143" y="102.413793" width="3.42857143" height="1.13793103"></rect>
                                                    <path d="M43.9999999,127.448276 C40.0709953,127.448219 36.5289004,125.091593 35.0253888,121.47729 C33.5218772,117.862988 34.3530397,113.702783 37.1313066,110.936573 C39.9095735,108.170363 44.0878125,107.342906 47.7177171,108.840044 C51.3476218,110.337182 53.7143444,113.864078 53.7142857,117.776148 C53.7082349,123.115531 49.3624972,127.442409 43.9999999,127.448276 Z M43.9999999,108.51982 C38.8658563,108.519898 34.7038594,112.66404 34.7038856,117.776054 C34.7039117,122.888067 38.865951,127.032167 44.0000946,127.032193 C49.1342383,127.032219 53.2963199,122.888162 53.2963984,117.776148 C53.290495,112.666456 49.1318118,108.525698 43.9999999,108.51982 Z" id="Shape" fill="#303443" fill-rule="nonzero"></path>
                                                    <path d="M97.7145757,127.448276 C93.7855446,127.448335 90.2433607,125.091784 88.7397577,121.477491 C87.2361547,117.863197 88.0672457,113.702945 90.8454897,110.936675 C93.6237338,108.170405 97.8019956,107.342895 101.431936,108.840016 C105.061876,110.337137 107.42863,113.864052 107.428571,117.776148 C107.422523,123.115419 103.07696,127.442251 97.7145757,127.448276 Z M97.7145757,108.51982 C93.9545904,108.51976 90.5648015,110.774905 89.1258627,114.233682 C87.6869239,117.69246 88.4822096,121.673724 91.1408792,124.321016 C93.7995488,126.968309 97.7980227,127.760291 101.271818,126.327662 C104.745614,124.895034 107.010627,121.519926 107.010684,117.776148 C107.004781,112.666568 102.846274,108.525857 97.7145757,108.51982 Z" id="Shape" fill="#303443" fill-rule="nonzero"></path>
                                                    <rect id="Rectangle" fill="#303443" x="63.8555133" y="104.689655" width="1" height="10.2413793"></rect>
                                                    <rect id="Rectangle" fill="#303443" x="74.2857143" y="118.201397" width="10.2857143" height="1"></rect>
                                                    <rect id="Rectangle" fill="#303443" x="91.4285714" y="98.8565698" width="11.4285714" height="1"></rect>
                                                    <polygon id="Rectangle" fill="#303443" transform="translate(50.874319, 98.771087) rotate(-3.471610) translate(-50.874319, -98.771087) " points="44.8130237 98.6249909 56.9354876 98.6303486 56.9356153 98.9171824 44.8131514 98.9118247"></polygon>
                                                    <path d="M77.1428571,27.3103448 C77.4615647,27.2998394 77.7142857,27.0482077 77.7142857,26.7413793 C77.7142857,26.4345509 77.4615647,26.1829193 77.1428571,26.1724138 C76.8241495,26.1829193 76.5714286,26.4345509 76.5714286,26.7413793 C76.5714286,27.0482077 76.8241495,27.2998394 77.1428571,27.3103448" id="Path" fill="#FFFFFF"></path>
                                                    <polygon id="Rectangle" fill="#82C56D" transform="translate(78.347368, 13.454573) rotate(-85.187830) translate(-78.347368, -13.454573) " points="66.2548375 -2.43018709 90.4204887 -2.41530838 90.439899 29.3393338 66.2742478 29.3244551"></polygon>
                                                    <path d="M90.9370781,2.27586207 C90.9370781,2.27586207 80.4957972,24.6544147 62.0005858,20.2248114 L61.7142857,23.5837283 L92.8482092,26.1724138 L94.8571429,2.60186964 L90.9370781,2.27586207 Z" id="Path" fill="#4DA258"></path>
                                                    <polygon id="Rectangle" fill="#FFCC5D" transform="translate(85.131098, 78.216312) rotate(-85.187490) translate(-85.131098, -78.216312) " points="80.0813787 44.9139889 90.1401053 44.9201825 90.180817 111.518635 80.1220903 111.512442"></polygon>
                                                    <polygon id="Rectangle" fill="#65CADE" transform="translate(86.057068, 69.493127) rotate(-85.187206) translate(-86.057068, -69.493127) " points="82.2931555 32.6702255 89.7759602 32.6748333 89.8209798 106.316028 82.338175 106.31142"></polygon>
                                                    <polygon id="Rectangle" fill="#FFCC5D" transform="translate(67.579379, 53.422581) rotate(-85.187620) translate(-67.579379, -53.422581) " points="56.83131 29.5690353 78.2982936 29.582253 78.3274481 77.276127 56.8604645 77.2629093"></polygon>
                                                    <polygon id="Rectangle" fill="#F15B43" transform="translate(78.108596, 34.545547) rotate(-85.187490) translate(-78.108596, -34.545547) " points="69.1373129 7.60414949 87.0469479 7.61517716 87.0798797 61.4869436 69.1702447 61.4759159"></polygon>
                                                    <polygon id="Rectangle" fill="#F39821" transform="translate(71.341974, 43.419104) rotate(-85.187180) translate(-71.341974, -43.419104) " points="70.8776887 22.4755361 71.7806517 22.4760921 71.8062587 64.3626711 70.9032956 64.3621151"></polygon>
                                                    <polygon id="Rectangle" fill="#F39821" transform="translate(71.341974, 43.419104) rotate(-85.187180) translate(-71.341974, -43.419104) " points="70.8776887 22.4755361 71.7806517 22.4760921 71.8062587 64.3626711 70.9032956 64.3621151"></polygon>
                                                    <polygon id="Rectangle" fill="#65CADE" transform="translate(78.212307, 33.323147) rotate(-85.187490) translate(-78.212307, -33.323147) " points="76.0661704 6.38595352 80.3255116 6.38857617 80.3584434 60.2603397 76.0991022 60.2577171"></polygon>
                                                    <polygon id="Path" fill="#82C56D" points="54.5574905 63.435513 58.2857143 63.7241379 54.0136174 41.2541422 50.2857143 40.9655172"></polygon>
                                                    <polygon id="Path" fill="#4DA258" points="51.5861293 41.8372513 54.8571429 42.1034483 54.6993037 41.2314423 51.4285714 40.9655172"></polygon>
                                                    <polygon id="Path" fill="#82C56D" points="43.4285714 56.8965517 91.1542939 53.3141991 91.4285714 50.0689655 43.7031353 53.6510332"></polygon>
                                                    <polygon id="Path" fill="#46C2CC" points="51.4285714 62.5862069 99.8351374 74.3752192 121.656213 76.2413793 122.285714 68.6455289"></polygon>
                                                    <polygon id="Path" fill="#F39821" points="100.100197 83.9425694 100.781655 76.2631563 52.5714286 72.4134828 52.7366829 70.5517241 118.857143 75.8319863 118.681812 77.8097977 104.083575 76.6440822 103.412481 84.2068966"></polygon>
                                                    <path d="M52.0514039,66.7533205 C51.4733166,66.4395702 51.0006801,65.9762702 50.6883909,65.4172324 C50.4391733,64.96668 50.1248117,64.397929 50.3810448,64.0290352 C50.6827117,63.5943697 51.5840375,63.7147924 52.0223397,63.842523 C52.7858502,64.0722754 53.3795001,64.6477351 53.6065083,65.3781506 C53.7745464,65.9335566 53.7935885,66.8435581 53.312191,67.0815439 C52.9687652,67.2515337 52.5171001,67.0065577 52.0514039,66.7533205" id="Path" fill="#A5DDEA"></path>
                                                    <path d="M50.2909983,66.5620254 C50.3506771,67.0106433 50.4265819,67.4561725 50.5187128,67.898613 C50.6452493,68.5058313 51.5435559,68.3317185 51.416251,67.7201474 C51.3237837,67.2777921 51.2478789,66.8322629 51.1885365,66.3835598 C51.1065696,65.7660036 50.2090314,65.9441971 50.2909983,66.5620254" id="Path" fill="#A5DDEA"></path>
                                                    <path d="M55.4796442,76.9949962 C54.9017584,76.6808433 54.4291968,76.2174846 54.1166336,75.6585297 C53.8677506,75.2079568 53.5533895,74.6391801 53.8096222,74.2705873 C54.1109544,73.8355843 55.0122786,73.9563302 55.45058,74.0837489 C56.2140479,74.3136846 56.8077277,74.889079 57.0350799,75.6194462 C57.2031177,76.1748773 57.2221598,77.0849202 56.7407631,77.3229167 C56.3973379,77.4929142 55.9456736,77.2479271 55.4796442,76.9949962" id="Path" fill="#FEECAA"></path>
                                                    <path d="M53.7195698,76.8033613 C53.7789958,77.2519795 53.8549006,77.6975144 53.9472842,78.139966 C54.0738207,78.747192 54.9721273,78.573077 54.8448224,77.9617702 C54.7523551,77.5191372 54.6764503,77.0736023 54.6171079,76.6251655 C54.535141,76.0073293 53.6376028,76.1855252 53.7195698,76.8033613" id="Path" fill="#FEECAA"></path>
                                                    <path d="M54.3369666,38.3052002 C53.7590618,37.9910552 53.2864867,37.5276997 52.9739206,36.9687466 C52.7250311,36.5181781 52.410662,35.9497246 52.6665671,35.5808176 C52.9682413,35.1461366 53.8695888,35.2665636 54.3079016,35.3939811 C55.0714638,35.6238754 55.6651137,36.1994608 55.8921084,36.9299812 C56.0601506,37.4850892 56.0795273,38.395441 55.5981181,38.6334352 C55.2543499,38.8031134 54.803008,38.5581286 54.3369666,38.3052002" id="Path" fill="#F6978F"></path>
                                                    <path d="M52.576715,38.1136568 C52.636152,38.562241 52.7120708,39.0077367 52.8044714,39.450144 C52.930775,40.0575887 53.8295033,39.883489 53.7019187,39.2719639 C53.6096889,38.8293661 53.5337701,38.3838704 53.4741623,37.9354766 C53.3921803,37.3176947 52.494733,37.4958749 52.576715,38.1136568" id="Path" fill="#F6978F"></path>
                                                    <path d="M65.7653585,4.16714833 C65.1874405,3.85318808 64.7148585,3.38993533 64.4023479,2.83104488 C64.1534648,2.38016955 63.8391038,1.81172982 64.0953364,1.44283182 C64.3970028,1.00816131 65.2979929,1.12858537 65.7366284,1.2563175 C66.5001375,1.48607247 67.0937864,2.06153881 67.3207942,2.79196267 C67.488832,3.34737499 67.5078741,4.25738694 67.0264774,4.4953754 C66.6830522,4.66536716 66.2313879,4.42007064 65.7653585,4.16714833" id="Path" fill="#BCDA86"></path>
                                                    <path d="M65.1481412,5.11374955 C65.2078166,5.56236742 65.2837214,6.00789661 65.3758556,6.45033711 C65.5023921,7.0575554 66.4006987,6.88344263 66.2733938,6.27187152 C66.1809248,5.82951627 66.10502,5.38398708 66.0456794,4.93528396 C65.9637124,4.31772772 65.0661742,4.49592126 65.1481412,5.11374955" id="Path" fill="#BCDA86"></path>
                                                    <path d="M93.2522754,14.6469109 L79.2743714,13.4572113 C80.7868298,13.0682705 82.1929445,12.3392355 83.3879004,11.3244503 C83.8942375,10.8758094 85.0798418,9.82516562 84.7789831,8.85635305 C84.6343558,8.39083089 84.1792467,8.03661058 83.4631859,7.83260486 C82.979491,7.69469356 82.2362595,7.62631016 80.7769671,8.33017281 C79.9346758,8.7364675 79.2050296,9.21887093 77.3342145,10.8626477 C76.9028798,11.2417607 76.5519251,11.5510597 76.2626704,11.8111456 L77.1055278,1.69040183 C77.1288965,1.40991387 76.9229197,1.16338226 76.6454658,1.13975807 C76.3680119,1.11613387 76.1241471,1.32436309 76.1007784,1.60485105 L75.2887711,11.3507736 C75.177258,11.1338924 75.0544239,10.8966964 74.9188535,10.6346077 C73.7683446,8.4145791 73.2625736,7.6964103 72.6246285,7.00828442 C71.5196872,5.81629589 70.8030603,5.60599546 70.3018177,5.55592393 C69.5588691,5.48410705 69.0103609,5.64462207 68.7078039,6.02487957 C68.0789157,6.81658199 68.8043165,8.23146036 69.1145152,8.8357522 C70.0417065,10.5284899 71.3985262,11.9407395 73.0452081,12.9270254 L62.2587278,12.0088566 C61.9819519,11.9865288 61.7393888,12.194577 61.7160922,12.4742793 C61.6927955,12.7539816 61.8975303,13.0001049 62.1741025,13.0248794 L74.5429923,14.0778122 C73.0129429,15.4414745 72.8383146,17.549629 72.8303898,17.6586419 C72.8202498,17.798015 72.9230193,17.9196494 73.0607746,17.9313171 L73.0630389,17.9313171 C73.201756,17.9419532 73.3227514,17.8369258 73.3333306,17.6966962 C73.3353118,17.6715174 73.5156006,15.5596433 75.0408385,14.3296004 L74.1003365,25.622018 C74.0782503,25.9018206 74.284048,26.1470362 74.5607247,26.1705876 C74.8374014,26.194139 75.0808623,25.9871653 75.1053689,25.7075688 L76.0631357,14.2071398 L77.3149686,14.3135776 C78.3525492,14.8881126 79.542965,16.0291712 79.3827712,18.2162956 C79.3724126,18.3557946 79.4752554,18.4776434 79.6131559,18.489257 L79.6154202,18.4895431 C79.6821956,18.4945413 79.7481981,18.4725041 79.7988939,18.428284 C79.8495897,18.384064 79.8808215,18.3212874 79.8857119,18.2537778 C80.0255278,16.3444788 79.2225773,15.142476 78.3081138,14.39827 L93.1676501,15.6629338 C93.4451821,15.6865579 93.6891103,15.4782647 93.712479,15.1976977 C93.7358476,14.9171308 93.5298075,14.6705351 93.2522754,14.6469109 M77.6650742,11.2474832 C79.4917369,9.64233301 80.1939294,9.1762386 80.9940496,8.79025863 C82.3013559,8.1599296 82.9274139,8.20971501 83.3267664,8.32330585 C83.8551797,8.47409269 84.2092477,8.72387809 84.2975524,9.00885663 C84.5002005,9.66093101 83.4504496,10.5908308 83.0553425,10.9410454 C81.3503818,12.4520611 78.9887962,13.144765 77.360253,13.2941212 L76.1488932,13.1911169 L76.1480441,13.1876834 L76.2006873,12.5542071 C76.5799448,12.2011312 77.1018485,11.742476 77.6650742,11.2474832 M69.5619825,8.60113131 C69.3202765,8.12960056 68.677803,6.87695395 69.1009298,6.34419287 C69.2812187,6.11758343 69.6834015,6.01486527 70.2084184,6.05921434 L70.2522878,6.06350618 C70.6655086,6.10442178 71.2666601,6.28868501 72.2566921,7.35678227 C72.8629381,8.01085951 73.3488971,8.70327723 74.4722353,10.8712314 C74.7447913,11.3974117 75.0017807,11.893549 75.2089572,12.3095719 L75.1546158,12.9645075 C75.1316155,13.0076572 75.1154742,13.0541967 75.1067841,13.1024188 L74.3208153,13.035466 C72.8354843,12.3636491 70.679377,10.779672 69.5619825,8.60113131" id="Shape" fill="#FFFFFF" fill-rule="nonzero"></path>
                                                    <path d="M75.4285714,19.3448276 C75.1719004,19.5418121 74.9110354,19.7296181 74.6459764,19.9082457 L74.2857143,26.0822427 L75.0303539,26.1724138 L75.4285714,19.3448276 Z" id="Path" fill="#E4EBF1"></path>
                                                    <path d="M93.7142857,14.1887371 L83.222621,13.6551724 C82.918866,13.843921 82.6065637,14.0309098 82.2857143,14.2161387 L93.6300346,14.7931034 L93.7142857,14.1887371 Z" id="Path" fill="#E4EBF1"></path>
                                                    <path d="M80.1703398,18.0495148 C80.1511317,18.1296342 80.3430381,18.1996067 80.6004213,18.2063303 L80.6051823,18.2064948 C80.7298528,18.2093712 80.8530865,18.1967156 80.9477438,18.1713151 C81.0424011,18.1459147 81.1007188,18.1098526 81.1098536,18.0710707 C81.202517,17.7340746 81.0996649,17.3946414 80.8062044,17.0689655 C80.5395857,17.1354434 80.2708508,17.2013729 80,17.2667538 C80.1817242,17.5235822 80.2391372,17.7874116 80.1703398,18.0495148" id="Path" fill="#E4EBF1"></path>
                                                    <path d="M65.2380172,50.0689655 C65.2380172,50.0689655 68.448523,48.9202426 71.3718289,49.1844767 C74.2954214,49.4489889 77.6555463,49.035393 82.2857143,47.2116216 L80.1471924,46.5432484 L80.8614661,44.3793103 C80.8614661,44.3793103 76.5468742,46.8731238 72.002121,46.6647961 C67.4573679,46.4564684 65.7671301,46.8742364 65.1428571,47.0992526 L65.2380172,50.0689655 Z" id="Path" fill="#F15B43"></path>
                                                    <path d="M65.2018304,50.0689655 C65.2018304,50.0689655 65.5647292,49.8478482 66.1207122,49.6161454 C66.153041,49.4829457 66.1812842,49.3509222 66.2077511,49.2227212 C66.4306772,48.1471264 66.1390082,47.9974606 65.7933395,46.6551724 C65.5719556,46.7139411 65.3542398,46.8057619 65.1428571,46.9295108 L65.2018304,50.0689655 Z" id="Path" fill="#CF2633"></path>
                                                    <path d="M46.8571429,54.1451602 C46.8571429,54.1451602 43.3458199,54.4967395 40.7554029,56.0940607 C38.1655769,57.6913819 34.8558129,58.8283661 29.7142857,59.1724138 L31.3891167,57.5407481 L29.723743,55.7584485 C29.723743,55.7584485 34.8827072,56.2121577 39.0034357,53.9264398 C43.1241642,51.640722 44.8861798,51.2734767 45.5697662,51.2068966 L46.8571429,54.1451602 Z" id="Path" fill="#F15B43"></path>
                                                    <path d="M45.402427,51.2068966 C44.7405602,51.2855048 44.0905175,51.4378601 43.4654775,51.6608737 C43.4394289,52.7202605 43.2584243,53.103804 44.0278608,53.8465593 C44.3171525,54.1469611 44.6484718,54.4074823 45.0123654,54.6206897 C46.1044042,54.4004243 46.8571429,54.3293503 46.8571429,54.3293503 L45.402427,51.2068966 Z" id="Path" fill="#CF2633"></path>
                                                    <path d="M56.909514,47.2006166 C56.909514,47.2006166 59.5323016,44.0395967 62.0554778,43.4334608 C64.5786541,42.82706 64.2901568,43.670034 65.0325439,45.7700511 C65.7746177,47.8698034 66.6231942,47.821853 66.1480039,48.9922675 C65.6731268,50.162682 64.9536065,51.7010697 58.230775,51.0533415 C51.5079434,50.4056132 56.909514,47.2006166 56.909514,47.2006166" id="Path" fill="#F15B43"></path>
                                                    <path d="M59.5353412,45.5172414 L59.4285714,45.4257555 C59.5176408,45.3794417 61.6253119,44.2953314 62.8571429,44.384524 L62.8377294,44.499643 C61.671561,44.4104523 59.5567513,45.506187 59.5353412,45.5172414 Z" id="Path" fill="#CF2633"></path>
                                                    <path d="M65.1428571,49.9720197 C64.1105478,47.1193892 58.2857143,51.0340134 58.2857143,51.0340134 C62.6836021,51.5373308 64.3711568,50.8682359 65.1428571,49.9720197" id="Path" fill="#CF2633"></path>
                                                    <path d="M51.7574601,48.2938693 C51.7574601,48.2938693 47.8273809,46.3022358 45.2825188,46.7102861 C42.7376568,47.1183363 43.4208536,47.810223 43.8297226,50.1053649 C44.2382829,52.4002258 43.4615862,52.6863106 44.4768155,53.6179128 C45.4923534,54.549515 46.911823,55.7365702 52.5431056,52.4887491 C58.1740796,49.240647 51.7574601,48.2938693 51.7574601,48.2938693" id="Path" fill="#F15B43"></path>
                                                    <path d="M45.7246227,54.4177692 C45.4798743,52.2309962 49.6436719,52.262619 51.5933574,52.3956041 C52.1840128,52.4356973 52.5714286,52.485108 52.5714286,52.485108 C48.7107992,54.7303267 46.843209,54.8596414 45.7246227,54.4177692" id="Path" fill="#CF2633"></path>
                                                    <path d="M50.7053056,50.0689655 C50.2165933,50.3387518 49.6719384,50.4232436 49.1428571,50.3113468 C49.5656744,50.5135628 49.9774234,50.7481999 50.3756019,51.0138322 C50.6002632,51.2178247 50.3631079,51.3041293 49.553078,51.6728851 C49.553078,51.6728851 50.9167787,51.488227 51.4285714,52.3448276 L50.7053056,50.0689655 Z" id="Path" fill="#CF2633"></path>
                                                    <path d="M58.2857143,48.4753581 C58.6658173,48.4580962 59.0343314,48.2202789 59.3429145,47.7931034 C59.1250676,48.2484768 58.9225516,48.7301205 58.7366007,49.2350987 C58.6453753,49.5749661 58.8186545,49.5214189 59.4285714,49.4136945 C59.4285714,49.4136945 58.5128772,50.0367322 58.4049462,51.2068966 L58.2857143,48.4753581 Z" id="Path" fill="#CF2633"></path>
                                                    <path d="M53.7142857,52.4350666 C53.7142857,52.4350666 53.0169543,53.6064333 53.595428,56.6173826 C53.595428,56.6173826 53.2242757,56.812279 52.4530598,55.808712 C52.0942866,56.1056602 51.80306,56.4766312 51.5990636,56.8965517 C51.5990636,56.8965517 50.9704275,53.871184 52.1273749,52.3448276 L53.7142857,52.4350666 Z" id="Path" fill="#F15B43"></path>
                                                    <path d="M51.5478858,56.8965517 C51.5269237,56.8271121 51.0368398,55.1872514 52.2085602,54.6206897 L52.5714286,54.703344 C51.4900625,55.2259312 51.9808645,56.8650759 51.9859421,56.8816541 L51.5478858,56.8965517 Z" id="Path" fill="#CF2633"></path>
                                                    <path d="M56,51.9718471 C56,51.9718471 57.3556897,52.7468628 58.2475594,55.7586039 C58.2475594,55.7586039 58.7519189,55.7777277 59.0866682,54.5251212 C59.6294081,54.643314 60.1357461,54.8585284 60.5714286,55.1562053 C60.5714286,55.1562053 59.7275505,52.1102428 57.6895447,51.2068966 L56,51.9718471 Z" id="Path" fill="#F15B43"></path>
                                                    <path d="M59.300872,54.6206897 C59.2957552,54.6028038 58.7916255,52.8493705 58.2857143,52.4868153 L58.3542365,52.3448276 C58.9028631,52.7380046 59.4074256,54.491979 59.4285714,54.5664967 L59.300872,54.6206897 Z" id="Path" fill="#CF2633"></path>
                                                    <path d="M57.7667297,51.2068966 L56,51.7881144 C56.3152483,51.9442782 56.5849658,52.1321491 56.7976466,52.3437128 C57.0711641,52.3530909 57.3413252,52.3030666 57.5606943,52.2024233 C57.9520985,52.0043862 58.2103234,51.724585 58.2857143,51.4168233 C58.1237886,51.3370588 57.9500343,51.266776 57.7667297,51.2068966" id="Path" fill="#CF2633"></path>
                                                    <path d="M51.7939747,52.3448276 C51.6497392,52.5173502 51.5271918,52.7036968 51.4285714,52.9004625 C51.6563269,53.1413245 51.9519002,53.3227372 52.2843687,53.4257216 C52.6591818,53.5276543 53.0636464,53.4919898 53.4092846,53.3265299 C53.4576142,53.0190375 53.560594,52.7205244 53.7142857,52.4424064 L51.7939747,52.3448276 Z" id="Path" fill="#CF2633"></path>
                                                    <path d="M52.1627643,53.4140945 C51.2494668,53.133367 50.8111092,52.230858 50.6518498,51.9026458 C50.4660997,51.5203786 50.029319,50.6214533 50.4897521,49.8025653 C50.7357405,49.3394784 51.1934867,49.0096861 51.7303987,48.9087171 C52.0996913,48.8663093 52.1898857,49.0248905 52.7285294,49.0204108 C53.1272624,49.0133604 53.5200995,48.9279341 53.8821352,48.7695479 C54.679063,48.4392451 55.0467787,48.1119288 55.6141207,47.9004873 C56.1234163,47.6975156 56.7102975,47.7867258 57.1269274,48.1304449 C58.1953845,48.7749235 58.2628727,50.0032556 58.279587,50.3108612 C58.2909402,50.5133434 58.3631588,51.8336585 57.4810824,52.45544 C56.9670372,52.8179966 56.6365345,52.5859484 55.4003031,52.7436337 C53.4693222,52.9900168 53.1101213,53.7055733 52.1627643,53.4140945" id="Path" fill="#F15B43"></path>
                                                    <path d="M58.3596374,51.0846677 C62.5723215,51.4624528 64.2918098,50.9116961 65.1052744,50.1553164 L65.1428571,50.0689655 L58.2857143,51.0282698 L58.3596374,51.0846677 Z" id="Path" fill="#CF2633"></path>
                                                    <path d="M45.7823592,54.4825209 C45.7823592,54.4825209 45.7570748,54.4859542 45.7142857,54.49184 C46.6712049,54.7475437 48.242175,54.7076513 51.4285714,53.5746419 L51.0612523,53.4827586 L48.0585154,54.019671 L45.7823592,54.4825209 Z" id="Path" fill="#CF2633"></path>
                                                    <path d="M65.2380172,50.0689655 C65.2380172,50.0689655 68.448523,48.9202426 71.3718289,49.1844767 C74.2954214,49.4489889 77.6555463,49.035393 82.2857143,47.2116216 L80.1471924,46.5432484 L80.8614661,44.3793103 C80.8614661,44.3793103 76.5468742,46.8731238 72.002121,46.6647961 C67.4573679,46.4564684 65.7671301,46.8742364 65.1428571,47.0992526 L65.2380172,50.0689655 Z" id="Path" fill="#F15B43"></path>
                                                    <path d="M80.9214344,45.5172414 L81.1428571,44.3793103 C81.1428571,44.3793103 80.7283277,44.7851673 80,45.3885924 L80.9214344,45.5172414 Z" id="Path" fill="#CF2633"></path>
                                                    <path d="M65.2018304,50.0689655 C65.2018304,50.0689655 65.5647292,49.8478482 66.1207122,49.6161454 C66.153041,49.4829457 66.1812842,49.3509222 66.2077511,49.2227212 C66.4306772,48.1471264 66.1390082,47.9974606 65.7933395,46.6551724 C65.5719556,46.7139411 65.3542398,46.8057619 65.1428571,46.9295108 L65.2018304,50.0689655 Z" id="Path" fill="#CF2633"></path>
                                                    <path d="M46.8571429,54.1451602 C46.8571429,54.1451602 43.3458199,54.4967395 40.7554029,56.0940607 C38.1655769,57.6913819 34.8558129,58.8283661 29.7142857,59.1724138 L31.3891167,57.5407481 L29.723743,55.7584485 C29.723743,55.7584485 34.8827072,56.2121577 39.0034357,53.9264398 C43.1241642,51.640722 44.8861798,51.2734767 45.5697662,51.2068966 L46.8571429,54.1451602 Z" id="Path" fill="#F15B43"></path>
                                                    <path d="M45.402427,51.2068966 C44.7405602,51.2855048 44.0905175,51.4378601 43.4654775,51.6608737 C43.4394289,52.7202605 43.2584243,53.103804 44.0278608,53.8465593 C44.3171525,54.1469611 44.6484718,54.4074823 45.0123654,54.6206897 C46.1044042,54.4004243 46.8571429,54.3293503 46.8571429,54.3293503 L45.402427,51.2068966 Z" id="Path" fill="#CF2633"></path>
                                                    <path d="M56.909514,47.2006166 C56.909514,47.2006166 59.5323016,44.0395967 62.0554778,43.4334608 C64.5786541,42.82706 64.2901568,43.670034 65.0325439,45.7700511 C65.7746177,47.8698034 66.6231942,47.821853 66.1480039,48.9922675 C65.6731268,50.162682 64.9536065,51.7010697 58.230775,51.0533415 C51.5079434,50.4056132 56.909514,47.2006166 56.909514,47.2006166" id="Path" fill="#F15B43"></path>
                                                    <path d="M61.7142857,43.2381196 L62.8571429,43.3703623 C62.6499204,43.0809201 62.324673,43.0324407 61.7142857,43.2381196" id="Path" fill="#CF2633"></path>
                                                    <path d="M59.5353412,45.5172414 L59.4285714,45.4257555 C59.5176408,45.3794417 61.6253119,44.2953314 62.8571429,44.384524 L62.8377294,44.499643 C61.671561,44.4104523 59.5567513,45.506187 59.5353412,45.5172414 Z" id="Path" fill="#CF2633"></path>
                                                    <path d="M65.1428571,49.9720197 C64.1105478,47.1193892 58.2857143,51.0340134 58.2857143,51.0340134 C62.6836021,51.5373308 64.3711568,50.8682359 65.1428571,49.9720197" id="Path" fill="#CF2633"></path>
                                                    <path d="M51.7574601,48.2938693 C51.7574601,48.2938693 47.8273809,46.3022358 45.2825188,46.7102861 C42.7376568,47.1183363 43.4208536,47.810223 43.8297226,50.1053649 C44.2382829,52.4002258 43.4615862,52.6863106 44.4768155,53.6179128 C45.4923534,54.549515 46.911823,55.7365702 52.5431056,52.4887491 C58.1740796,49.240647 51.7574601,48.2938693 51.7574601,48.2938693" id="Path" fill="#F15B43"></path>
                                                    <path d="M45.7246227,54.4177692 C45.4798743,52.2309962 49.6436719,52.262619 51.5933574,52.3956041 C52.1840128,52.4356973 52.5714286,52.485108 52.5714286,52.485108 C48.7107992,54.7303267 46.843209,54.8596414 45.7246227,54.4177692" id="Path" fill="#CF2633"></path>
                                                    <path d="M50.7053056,50.0689655 C50.2165933,50.3387518 49.6719384,50.4232436 49.1428571,50.3113468 C49.5656744,50.5135628 49.9774234,50.7481999 50.3756019,51.0138322 C50.6002632,51.2178247 50.3631079,51.3041293 49.553078,51.6728851 C49.553078,51.6728851 50.9167787,51.488227 51.4285714,52.3448276 L50.7053056,50.0689655 Z" id="Path" fill="#CF2633"></path>
                                                    <path d="M58.2857143,48.4753581 C58.6658173,48.4580962 59.0343314,48.2202789 59.3429145,47.7931034 C59.1250676,48.2484768 58.9225516,48.7301205 58.7366007,49.2350987 C58.6453753,49.5749661 58.8186545,49.5214189 59.4285714,49.4136945 C59.4285714,49.4136945 58.5128772,50.0367322 58.4049462,51.2068966 L58.2857143,48.4753581 Z" id="Path" fill="#CF2633"></path>
                                                    <path d="M53.7142857,52.4350666 C53.7142857,52.4350666 53.0169543,53.6064333 53.595428,56.6173826 C53.595428,56.6173826 53.2242757,56.812279 52.4530598,55.808712 C52.0942866,56.1056602 51.80306,56.4766312 51.5990636,56.8965517 C51.5990636,56.8965517 50.9704275,53.871184 52.1273749,52.3448276 L53.7142857,52.4350666 Z" id="Path" fill="#F15B43"></path>
                                                    <path d="M51.5478858,56.8965517 C51.5269237,56.8271121 51.0368398,55.1872514 52.2085602,54.6206897 L52.5714286,54.703344 C51.4900625,55.2259312 51.9808645,56.8650759 51.9859421,56.8816541 L51.5478858,56.8965517 Z" id="Path" fill="#CF2633"></path>
                                                    <path d="M56,51.9718471 C56,51.9718471 57.3556897,52.7468628 58.2475594,55.7586039 C58.2475594,55.7586039 58.7519189,55.7777277 59.0866682,54.5251212 C59.6294081,54.643314 60.1357461,54.8585284 60.5714286,55.1562053 C60.5714286,55.1562053 59.7275505,52.1102428 57.6895447,51.2068966 L56,51.9718471 Z" id="Path" fill="#F15B43"></path>
                                                    <path d="M59.300872,54.6206897 C59.2957552,54.6028038 58.7916255,52.8493705 58.2857143,52.4868153 L58.3542365,52.3448276 C58.9028631,52.7380046 59.4074256,54.491979 59.4285714,54.5664967 L59.300872,54.6206897 Z" id="Path" fill="#CF2633"></path>
                                                    <path d="M57.7667297,51.2068966 L56,51.7881144 C56.3152483,51.9442782 56.5849658,52.1321491 56.7976466,52.3437128 C57.0711641,52.3530909 57.3413252,52.3030666 57.5606943,52.2024233 C57.9520985,52.0043862 58.2103234,51.724585 58.2857143,51.4168233 C58.1237886,51.3370588 57.9500343,51.266776 57.7667297,51.2068966" id="Path" fill="#CF2633"></path>
                                                    <path d="M51.7939747,52.3448276 C51.6497392,52.5173502 51.5271918,52.7036968 51.4285714,52.9004625 C51.6563269,53.1413245 51.9519002,53.3227372 52.2843687,53.4257216 C52.6591818,53.5276543 53.0636464,53.4919898 53.4092846,53.3265299 C53.4576142,53.0190375 53.560594,52.7205244 53.7142857,52.4424064 L51.7939747,52.3448276 Z" id="Path" fill="#CF2633"></path>
                                                    <path d="M52.1627643,53.4140945 C51.2494668,53.133367 50.8111092,52.230858 50.6518498,51.9026458 C50.4660997,51.5203786 50.029319,50.6214533 50.4897521,49.8025653 C50.7357405,49.3394784 51.1934867,49.0096861 51.7303987,48.9087171 C52.0996913,48.8663093 52.1898857,49.0248905 52.7285294,49.0204108 C53.1272624,49.0133604 53.5200995,48.9279341 53.8821352,48.7695479 C54.679063,48.4392451 55.0467787,48.1119288 55.6141207,47.9004873 C56.1234163,47.6975156 56.7102975,47.7867258 57.1269274,48.1304449 C58.1953845,48.7749235 58.2628727,50.0032556 58.279587,50.3108612 C58.2909402,50.5133434 58.3631588,51.8336585 57.4810824,52.45544 C56.9670372,52.8179966 56.6365345,52.5859484 55.4003031,52.7436337 C53.4693222,52.9900168 53.1101213,53.7055733 52.1627643,53.4140945" id="Path" fill="#F15B43"></path>
                                                    <path d="M58.3596374,51.0846677 C62.5723215,51.4624528 64.2918098,50.9116961 65.1052744,50.1553164 L65.1428571,50.0689655 L58.2857143,51.0282698 L58.3596374,51.0846677 Z" id="Path" fill="#CF2633"></path>
                                                    <path d="M45.7823592,54.4825209 C45.7823592,54.4825209 45.7570748,54.4859542 45.7142857,54.49184 C46.6712049,54.7475437 48.242175,54.7076513 51.4285714,53.5746419 L51.0612523,53.4827586 L48.0585154,54.019671 L45.7823592,54.4825209 Z" id="Path" fill="#CF2633"></path>
                                                    <polygon id="Rectangle" fill="#65CADE" transform="translate(93.622919, 35.842356) rotate(-85.186160) translate(-93.622919, -35.842356) " points="84.6667754 33.6917035 102.57644 33.7027342 102.579063 37.993008 84.6693987 37.9819773"></polygon>
                                                    <polygon id="Rectangle" fill="#F15B43" transform="translate(105.456019, 76.160506) rotate(-85.187700) translate(-105.456019, -76.160506) " points="96.6830523 72.7228201 114.22479 72.7336208 114.228986 79.5981915 96.6872485 79.5873908"></polygon>
                                                    <path d="M102.501939,70.5517241 C102.291724,70.7448732 102.110436,70.9698442 101.964124,71.2191329 L101.714286,74.3182483 C101.837091,74.2145401 101.971282,74.1264619 102.114026,74.055872 C102.647979,75.2147637 103.041926,75.1003364 103.041926,75.1003364 C103.097204,71.9913913 104,70.9776761 104,70.9776761 L102.501939,70.5517241 Z" id="Path" fill="#CF2633"></path>
                                                    <path d="M109.714286,72.3481566 C109.649737,71.7028572 109.425876,71.0847895 109.063625,70.5517241 L107.428571,70.6447013 C107.428571,70.6447013 108.146182,71.8689868 107.547452,75.0143668 C107.547452,75.0143668 107.92955,75.2182413 108.724802,74.1705604 C109.035692,74.4281437 109.294472,74.744997 109.486707,75.1034483 L109.714286,72.3481566 Z" id="Path" fill="#CF2633"></path>
                                                    <path d="M105.065721,71.3475083 C105.651242,71.2907241 106.240837,71.3217228 106.819166,71.4396978 C107.594665,71.6361014 109.714286,70.3868673 109.714286,70.3868673 L105.584395,68.2758621 L102.857143,69.5765352 C102.857143,69.5765352 103.343899,71.5743078 104.078023,71.6745137 C104.812442,71.7743856 105.065721,71.3475083 105.065721,71.3475083" id="Path" fill="#CF2633"></path>
                                                    <path d="M109.13256,66.0960435 C109.13256,66.0960435 112.779478,63.6498822 115.408724,63.7258724 C118.03797,63.802141 117.457929,64.5651051 117.408464,66.8606777 C117.358368,69.1565287 118.186052,69.3374578 117.309532,70.3771041 C116.433327,71.4167505 115.190066,72.7578526 109.002437,70.2966603 C102.814807,67.8357463 109.13256,66.0960435 109.13256,66.0960435" id="Path" fill="#F15B43"></path>
                                                    <path d="M112.054954,64.862069 L112,64.6179467 C112.096823,64.5597021 114.385505,63.1904992 115.428571,63.956262 L115.363151,64.1935209 C114.380271,63.4718899 112.078245,64.8483772 112.054954,64.862069 Z" id="Path" fill="#F6978F"></path>
                                                    <path d="M103.877418,65.8478121 C103.877418,65.8478121 100.778967,62.955247 98.2009231,62.6482531 C95.6228795,62.3409863 96.0451265,63.1626385 95.6643252,65.3885492 C95.2829006,67.6150057 94.4421462,67.6698553 95.1021602,68.8015032 C95.7621743,69.9336968 96.7232146,71.4097237 103.217716,69.9268747 C109.712217,68.4445716 103.877418,65.8478121 103.877418,65.8478121" id="Path" fill="#F15B43"></path>
                                                    <path d="M102.77729,66.2826474 C102.411338,66.3456132 102.040765,66.24708 101.714286,66 C101.955685,66.285289 102.184274,66.5924937 102.398666,66.9197511 C102.510269,67.1468785 102.340246,67.1425195 101.747465,67.1854213 C101.747465,67.1854213 102.67045,67.4536151 102.857143,68.2758621 L102.77729,66.2826474 Z" id="Path" fill="#CF2633"></path>
                                                    <path d="M110.223005,67.1636665 C110.804329,67.3374896 111.423784,67.3285183 112,67.137931 C111.554256,67.3957568 111.125224,67.6823523 110.715542,67.995956 C110.491068,68.2233299 110.767745,68.2660455 111.720713,68.480419 C111.720713,68.480419 110.173412,68.5284408 109.714286,69.4137931 L110.223005,67.1636665 Z" id="Path" fill="#CF2633"></path>
                                                    <path d="M105.142857,69.9900079 C105.142857,69.9900079 103.758674,70.8983846 103.268639,73.9646881 C103.268639,73.9646881 102.708118,74.0367776 102.123768,72.8365388 C101.53744,73.0104532 101.008051,73.2762722 100.571429,73.6160056 C100.571429,73.6160056 101.002056,70.5206661 103.126662,69.4137931 L105.142857,69.9900079 Z" id="Path" fill="#F15B43"></path>
                                                    <path d="M100.736385,72.8275862 L100.571429,72.7952491 C100.588035,72.722365 100.984954,71.0010961 101.611321,70.5517241 L101.714286,70.6754252 C101.136898,71.0896402 100.74026,72.8101365 100.736385,72.8275862 Z" id="Path" fill="#F6978F"></path>
                                                    <path d="M107.428571,69.7111202 C107.428571,69.7111202 108.503634,70.809628 108.251498,73.940846 C108.251498,73.940846 108.754819,74.0903997 109.573628,72.9717987 C110.077853,73.2265851 110.507915,73.5654918 110.834624,73.9655172 C110.834624,73.9655172 111.148527,70.8131888 109.432356,69.4137931 L107.428571,69.7111202 Z" id="Path" fill="#F15B43"></path>
                                                    <path d="M107.428571,69.7111202 C107.428571,69.7111202 108.503634,70.809628 108.251498,73.940846 C108.251498,73.940846 108.754819,74.0903997 109.573628,72.9717987 C110.077853,73.2265851 110.507915,73.5654918 110.834624,73.9655172 C110.834624,73.9655172 111.148527,70.8131888 109.432356,69.4137931 L107.428571,69.7111202 Z" id="Path" fill="#F15B43"></path>
                                                    <path d="M109.442432,73.9655172 C109.441516,73.9486234 109.357925,72.2706786 108.571429,71.7890648 L108.774425,71.6896552 C109.627096,72.2119139 109.711159,73.890839 109.714286,73.9620898 L109.442432,73.9655172 Z" id="Path" fill="#F6978F"></path>
                                                    <path d="M109.714286,69.7251838 C109.623101,69.6153062 109.523284,69.5112517 109.415575,69.4137931 L107.428571,69.7388071 C107.597268,69.9618911 107.72896,70.2052311 107.819627,70.4614003 C108.100493,70.5684119 108.415884,70.5807733 108.706335,70.4961538 C109.13285,70.3499477 109.48901,70.0775245 109.714286,69.7251838" id="Path" fill="#CF2633"></path>
                                                    <path d="M103.313859,69.4137931 C103.149894,69.5148045 102.997009,69.6287153 102.857143,69.7540798 C102.990863,69.9813691 103.183332,70.1787564 103.419513,70.3308236 C103.833298,70.5889448 104.184666,70.5656954 104.698929,70.5302929 C104.820565,70.3447697 104.969824,70.1739509 105.142857,70.0222406 L103.313859,69.4137931 Z" id="Path" fill="#CF2633"></path>
                                                    <path d="M103.860104,69.9431668 C103.076785,69.4703919 102.948988,68.5920765 102.902255,68.2724466 C102.847894,67.9005232 102.720732,67.0254095 103.426163,66.449115 C103.811219,66.1194228 104.355989,65.9572762 104.902515,66.0096905 C105.270332,66.0689208 105.305301,66.2260678 105.822533,66.3608033 C106.206416,66.4572707 106.609983,66.4857981 107.007684,66.4445794 C107.877473,66.3688073 108.335256,66.1857805 108.946906,66.1524301 C109.499907,66.1111972 110.032711,66.3375181 110.320574,66.7359282 C111.135366,67.5574146 110.802519,68.6166224 110.719228,68.8820914 C110.66423,69.0568473 110.306904,70.1955624 109.261314,70.4965162 C108.652208,70.6718057 108.410282,70.389795 107.176174,70.2059677 C105.24776,69.9188877 104.672988,70.4338175 103.860104,69.9431668" id="Path" fill="#F15B43"></path>
                                                    <path d="M104,69.036739 C104,69.036739 103.914043,69.0136279 103.766562,68.9766502 C103.80435,68.9281346 103.809373,68.8735662 103.780692,68.8231267 C103.478664,68.744384 101.762759,68.5494257 101.762759,68.5494257 L101.762759,68.5495908 C99.9061438,68.2222391 97.5114131,68.0096173 97.1428571,68.992993 C97.95945,69.3914938 99.5255185,69.6201282 103.13513,69.1552657 L103.13513,69.1560911 L103.607894,69.1108594 L103.585816,69.0943515 C103.723583,69.0752024 103.856934,69.057704 104,69.036739" id="Path" fill="#CF2633"></path>
                                                    <path d="M115.428571,71.469523 C115.360629,70.531694 113.119117,70.4766416 111.21702,70.5999849 L111.21851,70.599662 C111.21851,70.599662 109.462431,70.7131572 108.704632,70.813414 L108.696288,70.8644304 C108.618214,70.8757315 108.571429,70.882835 108.571429,70.882835 C108.612254,70.8928445 108.649205,70.9010782 108.689434,70.9106034 L108.689136,70.9114106 L108.908758,70.96388 L108.913526,70.9635571 C112.708779,71.8608636 114.450853,71.793057 115.428571,71.469523" id="Path" fill="#CF2633"></path>
                                                    <path d="M61.7142857,23.8965517 C61.7142857,23.8965517 85.75337,28.0486801 92.3189411,31.7887078 L93.2356314,31.862069 L93.7142857,26.4583554 L61.7142857,23.8965517 Z" id="Path" fill="#CF2633"></path>
                                                    <polygon id="Rectangle" fill="#46C2CC" transform="translate(92.458769, 29.567840) rotate(-85.189360) translate(-92.458769, -29.567840) " points="89.6592613 29.1113616 95.2577219 29.1148074 95.2582777 30.0243188 89.659817 30.020873"></polygon>
                                                    <polygon id="Rectangle" fill="#303443" transform="translate(84.743897, 14.516886) rotate(-85.186330) translate(-84.743897, -14.516886) " points="84.5979193 10.2763879 84.8846884 10.2765645 84.889874 18.757384 84.6031048 18.7572073"></polygon>
                                                    <polygon id="Rectangle" fill="#303443" transform="translate(91.485384, 35.663739) rotate(-85.180580) translate(-91.485384, -35.663739) " points="82.5304651 35.5137913 100.440126 35.5248347 100.440303 35.8136862 82.5306419 35.8026429"></polygon>
                                                    <polygon id="Rectangle" fill="#303443" transform="translate(72.460272, 53.985975) rotate(-4.141390) translate(-72.460272, -53.985975) " points="63.1704255 53.8375513 81.7499658 53.8473369 81.7501181 54.1343977 63.1705778 54.1246121"></polygon>
                                                    <polygon id="Rectangle" fill="#303443" transform="translate(77.636253, 69.009167) rotate(-76.519980) translate(-77.636253, -69.009167) " points="77.4854618 64.607692 77.7724486 64.608171 77.7870444 73.410642 77.5000576 73.410163"></polygon>
                                                    <polygon id="Path" fill="#303443" points="99.9364982 84.2068966 99.6738775 84.1843746 100.286659 76.7776153 97.1428571 76.5084248 97.1650059 76.2413793 100.571429 76.5330917"></polygon>
                                                    <path d="M66.2231228,21.6189135 C64.696414,21.6455199 63.1756018,21.373071 61.7142857,20.8111688 L61.80658,20.4827586 C64.3605528,21.4250178 67.059577,21.5411937 69.6579415,20.8207099 L69.7142857,21.1620661 C68.5660489,21.4665055 67.3961251,21.6195996 66.2231228,21.6189135 Z" id="Path" fill="#303443"></path>
                                                    <polygon id="Rectangle" fill="#303443" transform="translate(55.776150, 33.585121) rotate(-85.189800) translate(-55.776150, -33.585121) " points="55.6308005 30.3696267 55.9175696 30.3698032 55.9214989 36.8006157 55.6347297 36.8004392"></polygon>
                                                    <polygon id="Rectangle" fill="#303443" transform="translate(122.103313, 51.635345) rotate(-84.625060) translate(-122.103313, -51.635345) " points="121.951186 39.0011288 122.238209 39.0013259 122.255441 64.2695602 121.968418 64.269363"></polygon>
                                                    <polygon id="Rectangle" fill="#303443" transform="translate(137.973428, 81.963273) rotate(-84.625060) translate(-137.973428, -81.963273) " points="137.821301 69.3290573 138.108323 69.3292545 138.125555 94.5974887 137.838533 94.5972916"></polygon>
                                                    <polygon id="Rectangle" fill="#303443" transform="translate(116.330601, 21.917405) rotate(-84.624430) translate(-116.330601, -21.917405) " points="116.178472 9.28317697 116.465495 9.28337415 116.482729 34.551634 116.195706 34.5514369"></polygon>
                                                    <polygon id="Rectangle" fill="#303443" transform="translate(134.682807, 38.221107) rotate(-84.624490) translate(-134.682807, -38.221107) " points="134.530679 25.5867369 134.817701 25.586934 134.834935 50.8554771 134.547913 50.8552799"></polygon>
                                                    <path d="M38.8571428,83.0689655 C38.8571428,83.6974275 38.3454683,84.2068966 37.7142857,84.2068966 C37.0831031,84.2068966 36.5714286,83.6974275 36.5714286,83.0689655 C36.5714286,82.4405036 37.0831031,81.9310345 37.7142857,81.9310345 C38.017404,81.9309898 38.3081203,82.0508643 38.5224573,82.2642774 C38.7367943,82.4776906 38.8571877,82.7671538 38.8571428,83.0689655" id="Path" fill="#FFFFFF"></path>
                                                    <path d="M13.7142857,104.689655 C13.7142857,105.318117 13.2026111,105.827586 12.5714286,105.827586 C11.940246,105.827586 11.4285714,105.318117 11.4285714,104.689655 C11.4285714,104.061193 11.940246,103.551724 12.5714286,103.551724 C13.2026,103.551751 13.7142589,104.061204 13.7142857,104.689655" id="Path" fill="#EDF2FA"></path>
                                                    <path d="M2.28571427,77.3793104 C2.28571427,78.0077723 1.7740397,78.5172414 1.14285714,78.5172414 C0.511674569,78.5172414 0,78.0077723 0,77.3793104 C0,76.7508484 0.511674569,76.2413793 1.14285714,76.2413793 C1.44597545,76.2413346 1.7366917,76.3612091 1.95102872,76.5746223 C2.16536574,76.7880354 2.28575914,77.0774986 2.28571427,77.3793104" id="Path" fill="#EDF2FA"></path>
                                                    <path d="M152,42.1034483 C152,42.7319102 151.488325,43.2413793 150.857143,43.2413793 C150.22596,43.2413793 149.714286,42.7319102 149.714286,42.1034483 C149.714286,41.4749863 150.22596,40.9655172 150.857143,40.9655172 C151.160258,40.9654818 151.450969,41.0853592 151.665304,41.2987704 C151.879639,41.5121815 152.000036,41.8016393 152,42.1034483" id="Path" fill="#EDF2FA"></path>
                                                    <path d="M140.571429,14.7931034 C140.571429,15.4215654 140.059754,15.9310345 139.428571,15.9310345 C138.797389,15.9310345 138.285714,15.4215654 138.285714,14.7931034 C138.285714,14.1646415 138.797389,13.6551724 139.428571,13.6551724 C139.731678,13.655167 140.022371,13.7750541 140.236699,13.9884587 C140.451028,14.2018633 140.571434,14.4913037 140.571429,14.7931034" id="Path" fill="#EDF2FA"></path>
                                                    <path d="M24,36.4137931 C24,37.0422551 23.4883254,37.5517241 22.8571429,37.5517241 C22.2259603,37.5517241 21.7142857,37.0422551 21.7142857,36.4137931 C21.7142857,35.7853311 22.2259603,35.2758621 22.8571429,35.2758621 C23.4882972,35.2759299 23.9999318,35.7853593 24,36.4137931" id="Path" fill="#EDF2FA"></path>
                                                    <path d="M46.8571429,22.1896552 C46.8571429,23.1323481 46.089631,23.8965517 45.1428571,23.8965517 C44.1960833,23.8965517 43.4285714,23.1323481 43.4285714,22.1896552 C43.4285714,21.2469622 44.1960833,20.4827586 45.1428571,20.4827586 C46.0895722,20.4829 46.8570009,21.2470208 46.8571429,22.1896552" id="Path" fill="#EDF2FA"></path>
                                                    <path d="M9.14285714,22.7586207 C9.14285714,23.3870826 8.63118257,23.8965517 8,23.8965517 C7.36881743,23.8965517 6.85714286,23.3870826 6.85714286,22.7586207 C6.85714286,22.1301587 7.36881743,21.6206897 8,21.6206897 C8.63117146,21.6207164 9.14283032,22.1301698 9.14285714,22.7586207" id="Path" fill="#EDF2FA"></path>
                                                    <path d="M22.8571429,58.0344828 C22.8571429,58.6629447 22.3454683,59.1724138 21.7142857,59.1724138 C21.0831031,59.1724138 20.5714286,58.6629447 20.5714286,58.0344828 C20.5714286,57.4060208 21.0831031,56.8965517 21.7142857,56.8965517 C22.3454572,56.8965784 22.857116,57.4060319 22.8571429,58.0344828" id="Path" fill="#FFFFFF"></path>
                                                    <path d="M136,63.7242895 C135.999916,64.9812134 134.976499,66.0000837 133.714133,66 C132.451768,65.9999163 131.428487,64.9809103 131.428571,63.7239863 C131.428656,62.4670624 132.452073,61.4481922 133.714438,61.4482759 C134.320676,61.448222 134.902095,61.6880079 135.330742,62.1148637 C135.759388,62.5417195 136.000135,63.1206645 136,63.7242895" id="Path" fill="#FFFFFF"></path>
                                                    <path d="M116.571429,38.6896552 C116.571429,39.3181171 116.059754,39.8275862 115.428571,39.8275862 C114.797389,39.8275862 114.285714,39.3181171 114.285714,38.6896552 C114.285714,38.0611932 114.797389,37.5517241 115.428571,37.5517241 C115.731687,37.5516887 116.022398,37.6715661 116.236733,37.8849773 C116.451068,38.0983884 116.571464,38.3878462 116.571429,38.6896552" id="Path" fill="#FFFFFF"></path>
                                                    <path d="M137.142857,104.689655 C137.142857,105.318117 136.631183,105.827586 136,105.827586 C135.368817,105.827586 134.857143,105.318117 134.857143,104.689655 C134.857143,104.061193 135.368817,103.551724 136,103.551724 C136.631154,103.551793 137.142788,104.061222 137.142857,104.689655" id="Path" fill="#EDF2FA"></path>
                                                </g>
                                            </g>
                                        </g>
                                    </g>
                                </g>
                            </g>
                        </g>
                    </g>
                </g>
            </g>
        </g>
    </g>
</svg>