<?xml version="1.0" encoding="UTF-8"?>
<svg width="162px" height="140px" viewBox="0 0 162 140" version="1.1" xmlns="http://www.w3.org/2000/svg" xmlns:xlink="http://www.w3.org/1999/xlink">
    <!-- Generator: Sketch 52.5 (67469) - http://www.bohemiancoding.com/sketch -->
    <title>bg-invited-list</title>
    <desc>Created with Sketch.</desc>
    <defs>
        <filter x="-10.8%" y="-18.0%" width="121.6%" height="136.0%" filterUnits="objectBoundingBox" id="filter-1">
            <feOffset dx="0" dy="7" in="SourceAlpha" result="shadowOffsetOuter1"></feOffset>
            <feGaussianBlur stdDeviation="3.5" in="shadowOffsetOuter1" result="shadowBlurOuter1"></feGaussianBlur>
            <feColorMatrix values="0 0 0 0 0.607843137   0 0 0 0 0.607843137   0 0 0 0 0.607843137  0 0 0 0.5 0" type="matrix" in="shadowBlurOuter1" result="shadowMatrixOuter1"></feColorMatrix>
            <feMerge>
                <feMergeNode in="shadowMatrixOuter1"></feMergeNode>
                <feMergeNode in="SourceGraphic"></feMergeNode>
            </feMerge>
        </filter>
    </defs>
    <g id="Page-1" stroke="none" stroke-width="1" fill="none" fill-rule="evenodd" opacity="0.2">
        <g id="Dashboard-Light" transform="translate(-117.000000, -208.000000)">
            <g id="Own-section" transform="translate(22.000000, 142.000000)">
                <g id="Item" filter="url(#filter-1)" transform="translate(0.000000, 43.000000)">
                    <g id="bg-invited-list">
                        <g transform="translate(102.000000, 23.000000)" id="girl-giving-gifts-to-man-2561021-0">
                            <g>
                                <path d="M53.8235085,96.1148545 C43.3323948,98.8074894 42.522006,103.033257 32.0783715,105.896075 C26.9001996,107.315456 14.822222,110.626155 6.89232607,104.078116 C0.219594391,98.5681045 0.0367555861,89.0105275 0.00579094977,87.3811656 C-0.189728611,77.1482023 4.58619792,74.6542628 11.2285548,59.3814449 C14.496651,51.8672529 14.8517121,46.9785731 16.8738503,37.4530725 C18.4064524,30.2355871 22.9499967,23.6605207 30.2732806,19.0946838 C41.8764671,11.8602692 55.3956273,16.2630511 57.649263,16.9966501 C69.0586994,20.7121656 70.123588,27.3086163 79.5843165,33.6936005 C101.189375,48.2752909 120.380077,30.5753593 137.482878,43.4549219 C148.854567,52.0187247 154.321447,70.3512741 148.87757,84.0247275 C142.471134,100.114899 121.933305,107.300011 107.385842,105.619565 C95.3444317,104.2284 92.3320149,97.3319754 73.9729346,95.34413 C68.2008315,94.7195314 61.7513401,94.0800826 53.8235085,96.1148545" id="Path" fill="#EDF2FA"></path>
                                <path d="M35.8503467,67.1480478 L11.1496533,67.1480478 C11.0670021,67.1480478 11,67.0817645 11,67 C11,66.9182355 11.0670021,66.8519522 11.1496533,66.8519522 L35.8503467,66.8519522 C35.9329979,66.8519522 36,66.9182355 36,67 C36,67.0817645 35.9329979,67.1480478 35.8503467,67.1480478 Z" id="Path" fill="#AFC4DB"></path>
                                <path d="M34.8550003,67.1480478 L11.1449997,67.1480478 C11.0649186,67.1480478 11,67.0817645 11,67 C11,66.9182355 11.0649186,66.8519522 11.1449997,66.8519522 L34.8550003,66.8519522 C34.9350814,66.8519522 35,66.9182355 35,67 C35,67.0817645 34.9350814,67.1480478 34.8550003,67.1480478 Z" id="Path" fill="#AFC4DB"></path>
                                <path d="M35.8503467,73.1480478 L11.1496533,73.1480478 C11.0670021,73.1480478 11,73.0817645 11,73 C11,72.9182355 11.0670021,72.8519522 11.1496533,72.8519522 L35.8503467,72.8519522 C35.9329979,72.8519522 36,72.9182355 36,73 C36,73.0817645 35.9329979,73.1480478 35.8503467,73.1480478 Z" id="Path" fill="#AFC4DB"></path>
                                <path d="M21,73 C20.9607781,73.0000221 20.9231562,72.9848931 20.8954221,72.9579457 C20.8676881,72.9309984 20.8521173,72.8944437 20.8521401,72.8563344 L20.8521401,67.1436656 C20.8521401,67.0643213 20.9183392,67 21,67 C21.0816608,67 21.1478599,67.0643213 21.1478599,67.1436656 L21.1478599,72.8563344 C21.1478827,72.8944437 21.1323119,72.9309984 21.1045779,72.9579457 C21.0768438,72.9848931 21.0392219,73.0000221 21,73 Z" id="Path" fill="#AFC4DB"></path>
                                <path d="M15,79 C14.9607784,79.0000213 14.9231569,78.9848857 14.895423,78.9579271 C14.8676891,78.9309686 14.8521181,78.8943988 14.8521401,78.8562736 L14.8521401,73.1437263 C14.8521401,73.0643485 14.9183392,73 15,73 C15.0816608,73 15.1478599,73.0643485 15.1478599,73.1437263 L15.1478599,78.8562736 C15.1478819,78.8943988 15.1323109,78.9309686 15.104577,78.9579271 C15.0768431,78.9848857 15.0392216,79.0000213 15,79 Z" id="Path" fill="#AFC4DB"></path>
                                <path d="M30,79 C29.9607784,79.0000213 29.9231569,78.9848857 29.895423,78.9579271 C29.8676891,78.9309686 29.8521181,78.8943988 29.8521401,78.8562736 L29.8521401,73.1437263 C29.8521401,73.0643485 29.9183392,73 30,73 C30.0816608,73 30.1478599,73.0643485 30.1478599,73.1437263 L30.1478599,78.8562736 C30.1478819,78.8943988 30.1323109,78.9309686 30.104577,78.9579271 C30.0768431,78.9848857 30.0392216,79.0000213 30,79 Z" id="Path" fill="#AFC4DB"></path>
                                <path d="M34.8550003,79.1480478 L11.1449997,79.1480478 C11.0649186,79.1480478 11,79.0817645 11,79 C11,78.9182355 11.0649186,78.8519522 11.1449997,78.8519522 L34.8550003,78.8519522 C34.9350814,78.8519522 35,78.9182355 35,79 C35,79.0817645 34.9350814,79.1480478 34.8550003,79.1480478 Z" id="Path" fill="#AFC4DB"></path>
                                <path d="M104.850347,47.1480478 L80.1496533,47.1480478 C80.0670021,47.1480478 80,47.0817645 80,47 C80,46.9182355 80.0670021,46.8519522 80.1496533,46.8519522 L104.850347,46.8519522 C104.932998,46.8519522 105,46.9182355 105,47 C105,47.0817645 104.932998,47.1480478 104.850347,47.1480478 Z" id="Path" fill="#AFC4DB"></path>
                                <path d="M116.850345,31.1480478 L92.1496551,31.1480478 C92.0670029,31.1480478 92,31.0817645 92,31 C92,30.9182355 92.0670029,30.8519522 92.1496551,30.8519522 L116.850345,30.8519522 C116.932997,30.8519522 117,30.9182355 117,31 C117,31.0817645 116.932997,31.1480478 116.850345,31.1480478 Z" id="Path" fill="#AFC4DB"></path>
                                <path d="M102,31 C101.960778,31.0000221 101.923156,30.9848931 101.895422,30.9579457 C101.867688,30.9309984 101.852117,30.8944437 101.85214,30.8563344 L101.85214,25.1436656 C101.85214,25.0643213 101.918339,25 102,25 C102.081661,25 102.14786,25.0643213 102.14786,25.1436656 L102.14786,30.8563344 C102.147883,30.8944437 102.132312,30.9309984 102.104578,30.9579457 C102.076844,30.9848931 102.039222,31.0000221 102,31 Z" id="Path" fill="#AFC4DB"></path>
                                <path d="M97,37 C96.9607781,37.0000221 96.9231562,36.9848874 96.8954221,36.95793 C96.8676881,36.9309725 96.8521173,36.8944041 96.8521401,36.8562805 L96.8521401,31.1437195 C96.8521401,31.0643454 96.9183392,31 97,31 C97.0816608,31 97.1478599,31.0643454 97.1478599,31.1437195 L97.1478599,36.8562805 C97.1478827,36.8944041 97.1323119,36.9309725 97.1045779,36.95793 C97.0768438,36.9848874 97.0392219,37.0000221 97,37 Z" id="Path" fill="#AFC4DB"></path>
                                <path d="M111,37 C110.960778,37.0000221 110.923156,36.9848874 110.895422,36.95793 C110.867688,36.9309725 110.852117,36.8944041 110.85214,36.8562805 L110.85214,31.1437195 C110.85214,31.0643454 110.918339,31 111,31 C111.081661,31 111.14786,31.0643454 111.14786,31.1437195 L111.14786,36.8562805 C111.147883,36.8944041 111.132312,36.9309725 111.104578,36.95793 C111.076844,36.9848874 111.039222,37.0000221 111,37 Z" id="Path" fill="#AFC4DB"></path>
                                <path d="M116.855,37.1480478 L93.1449997,37.1480478 C93.0649186,37.1480478 93,37.0817645 93,37 C93,36.9182355 93.0649186,36.8519522 93.1449997,36.8519522 L116.855,36.8519522 C116.935081,36.8519522 117,36.9182355 117,37 C117,37.0817645 116.935081,37.1480478 116.855,37.1480478 Z" id="Path" fill="#AFC4DB"></path>
                                <path d="M93.8503449,93.1480478 L69.1496551,93.1480478 C69.0670029,93.1480478 69,93.0817645 69,93 C69,92.9182355 69.0670029,92.8519522 69.1496551,92.8519522 L93.8503449,92.8519522 C93.9329971,92.8519522 94,92.9182355 94,93 C94,93.0817645 93.9329971,93.1480478 93.8503449,93.1480478 Z" id="Path" fill="#AFC4DB"></path>
                                <path d="M93.8550003,93.1480478 L70.1449997,93.1480478 C70.0649186,93.1480478 70,93.0817645 70,93 C70,92.9182355 70.0649186,92.8519522 70.1449997,92.8519522 L93.8550003,92.8519522 C93.9350814,92.8519522 94,92.9182355 94,93 C94,93.0817645 93.9350814,93.1480478 93.8550003,93.1480478 Z" id="Path" fill="#AFC4DB"></path>
                                <path d="M93.8503449,98.1480478 L69.1496551,98.1480478 C69.0670029,98.1480478 69,98.0817645 69,98 C69,97.9182355 69.0670029,97.8519522 69.1496551,97.8519522 L93.8503449,97.8519522 C93.9329971,97.8519522 94,97.9182355 94,98 C94,98.0817645 93.9329971,98.1480478 93.8503449,98.1480478 Z" id="Path" fill="#AFC4DB"></path>
                                <path d="M79,98 C78.9607781,98.0000221 78.9231562,97.9848931 78.8954221,97.9579457 C78.8676881,97.9309984 78.8521173,97.8944437 78.8521401,97.8563344 L78.8521401,92.1436656 C78.8521401,92.0643213 78.9183392,92 79,92 C79.0816608,92 79.1478599,92.0643213 79.1478599,92.1436656 L79.1478599,97.8563344 C79.1478827,97.8944437 79.1323119,97.9309984 79.1045779,97.9579457 C79.0768438,97.9848931 79.0392219,98.0000221 79,98 Z" id="Path" fill="#AFC4DB"></path>
                                <path d="M73,104 C72.9607781,104.000022 72.9231562,103.984887 72.8954221,103.95793 C72.8676881,103.930973 72.8521173,103.894404 72.8521401,103.856281 L72.8521401,98.1437195 C72.8521401,98.0643454 72.9183392,98 73,98 C73.0816608,98 73.1478599,98.0643454 73.1478599,98.1437195 L73.1478599,103.856281 C73.1478827,103.894404 73.1323119,103.930973 73.1045779,103.95793 C73.0768438,103.984887 73.0392219,104.000022 73,104 Z" id="Path" fill="#AFC4DB"></path>
                                <path d="M88,104 C87.9607781,104.000022 87.9231562,103.984887 87.8954221,103.95793 C87.8676881,103.930973 87.8521173,103.894404 87.8521401,103.856281 L87.8521401,98.1437195 C87.8521401,98.0643454 87.9183392,98 88,98 C88.0816608,98 88.1478599,98.0643454 88.1478599,98.1437195 L88.1478599,103.856281 C88.1478827,103.894404 88.1323119,103.930973 88.1045779,103.95793 C88.0768438,103.984887 88.0392219,104.000022 88,104 Z" id="Path" fill="#AFC4DB"></path>
                                <path d="M92.8550003,104.148048 L69.1449997,104.148048 C69.0649186,104.148048 69,104.081765 69,104 C69,103.918235 69.0649186,103.851952 69.1449997,103.851952 L92.8550003,103.851952 C92.9350814,103.851952 93,103.918235 93,104 C93,104.081765 92.9350814,104.148048 92.8550003,104.148048 Z" id="Path" fill="#AFC4DB"></path>
                                <polygon id="Rectangle" fill="#E4EBF1" transform="translate(62.041157, 71.499894) rotate(-89.152840) translate(-62.041157, -71.499894) " points="61.7452456 60.0637608 62.3374988 60.0637497 62.3370691 82.9360271 61.7448159 82.9360382"></polygon>
                                <polygon id="Rectangle" fill="#E4EBF1" transform="translate(123.369253, 91.839847) rotate(-89.152110) translate(-123.369253, -91.839847) " points="123.073341 80.4037102 123.665594 80.4036991 123.665164 103.275982 123.072911 103.275994"></polygon>
                                <polygon id="Rectangle" fill="#E4EBF1" transform="translate(34.545576, 49.207285) rotate(-89.152110) translate(-34.545576, -49.207285) " points="34.2496641 37.7711492 34.8419173 37.771138 34.8414873 60.6434213 34.2492341 60.6434324"></polygon>
                                <polygon id="Rectangle" fill="#E4EBF1" transform="translate(34.337204, 63.278467) rotate(-89.153320) translate(-34.337204, -63.278467) " points="34.0411614 58.803055 34.6334146 58.8030439 34.6332465 67.7538799 34.0409933 67.753891"></polygon>
                                <polygon id="Rectangle" fill="#E4EBF1" transform="translate(35.893636, 81.314712) rotate(-89.154460) translate(-35.893636, -81.314712) " points="35.5975657 78.3303361 36.1898189 78.330325 36.189707 84.2990887 35.5974538 84.2990998"></polygon>
                                <polygon id="Rectangle" fill="#E4EBF1" transform="translate(106.521289, 59.163204) rotate(-89.153010) translate(-106.521289, -59.163204) " points="106.225211 56.6039705 106.817464 56.6039594 106.817368 61.7224366 106.225115 61.7224477"></polygon>
                                <polygon id="Rectangle" fill="#E4EBF1" transform="translate(110.573587, 81.190667) rotate(-89.151760) translate(-110.573587, -81.190667) " points="110.277589 74.3337821 110.869843 74.333771 110.869585 88.0475519 110.277331 88.047563"></polygon>
                                <polygon id="Rectangle" fill="#E4EBF1" transform="translate(124.460143, 81.396109) rotate(-89.154700) translate(-124.460143, -81.396109) " points="124.164072 78.4598211 124.756325 78.4598101 124.756215 84.3323967 124.163961 84.3324078"></polygon>
                                <polygon id="Rectangle" fill="#E4EBF1" transform="translate(82.217549, 89.983031) rotate(-89.151880) translate(-82.217549, -89.983031) " points="81.9214774 87.0467414 82.5137306 87.0467303 82.5136201 92.91932 81.9213669 92.9193311"></polygon>
                                <polygon id="Rectangle" fill="#E4EBF1" transform="translate(108.934993, 95.445037) rotate(-89.152680) translate(-108.934993, -95.445037) " points="108.638969 90.0160809 109.231222 90.0160698 109.231018 100.873991 108.638765 100.874003"></polygon>
                                <polygon id="Rectangle" fill="#E4EBF1" transform="translate(28.128102, 44.284259) rotate(-89.152750) translate(-28.128102, -44.284259) " points="27.8321871 33.0055331 28.4244403 33.005522 28.4240166 55.5629848 27.8317634 55.5629959"></polygon>
                                <path d="M34.6062689,20.3631419 C34.6062689,20.3631419 35.0507544,24.6883458 34.9951937,26.181571 C34.939633,27.6750822 35.2729972,29.6829265 32.1615986,29.5799454 L32.1615986,32 L27.6611829,31.6913429 C27.6611829,31.6913429 27.8278649,29.0650402 27.272258,27.8807582 C26.7166512,26.6964762 24.4942236,24.4308932 25.1053912,23.813293 C25.7165588,23.1951207 26.6055298,24.1219501 27.217006,24.9460845 L27.105576,22.2168007 C27.105576,22.2168007 28.4393412,22.2168007 28.9393874,21.650405 C29.4391249,21.0842953 30.1058531,21.1354998 30.5503387,21.1354998 C30.9948242,21.1354998 31.6059917,20.6205945 31.7174218,19.8997272 C31.8282345,19.1788599 33.4394944,18.0975589 34.6062689,20.3631419" id="Path" fill="#E9A48A"></path>
                                <path d="M54.5,18 C54.7788065,17.9909783 55,17.7697848 55,17.5 C55,17.2302152 54.7788065,17.0090217 54.5,17 C54.2211935,17.0090217 54,17.2302152 54,17.5 C54,17.7697848 54.2211935,17.9909783 54.5,18" id="Path" fill="#FFFFFF"></path>
                                <polygon id="Rectangle" fill="#82C56D" transform="translate(53.535258, 9.179211) rotate(-9.562880) translate(-53.535258, -9.179211) " points="43.8565578 1.75209707 63.2170479 1.74806726 63.213959 16.6063252 43.8534688 16.6103551"></polygon>
                                <path d="M45.4530963,3 C45.4530963,3 53.2201279,16.4213631 64.6411502,12.7122154 L65,14.7922877 L45.5161742,18 L43,3.40380304 L45.4530963,3 Z" id="Path" fill="#4DA258"></path>
                                <polygon id="Rectangle" fill="#FFCC5D" transform="translate(52.707115, 49.207198) rotate(-9.562921) translate(-52.707115, -49.207198) " points="32.4057381 46.1190757 73.0097768 46.1106241 73.008491 52.2953204 32.4044523 52.303772"></polygon>
                                <polygon id="Rectangle" fill="#65CADE" transform="translate(51.701363, 43.908214) rotate(-9.563260) translate(-51.701363, -43.908214) " points="29.2527579 41.61261 74.1509244 41.6032642 74.1499679 46.2038186 29.2518014 46.2131643"></polygon>
                                <polygon id="Rectangle" fill="#FFCC5D" transform="translate(62.109863, 33.126819) rotate(-9.563390) translate(-62.109863, -33.126819) " points="47.5720389 26.5304032 76.650431 26.5243503 76.6476868 39.7232342 47.5692948 39.7292871"></polygon>
                                <polygon id="Rectangle" fill="#F15B43" transform="translate(54.752946, 22.091408) rotate(-9.562820) translate(-54.752946, -22.091408) " points="38.3315516 16.5889896 71.1766297 16.582153 71.1743404 27.5938259 38.3292623 27.6006624"></polygon>
                                <polygon id="Rectangle" fill="#F39821" transform="translate(59.315165, 27.186990) rotate(-9.562790) translate(-59.315165, -27.186990) " points="46.5463228 26.9119759 72.0841232 26.9066604 72.0840077 27.4620037 46.5462073 27.4673193"></polygon>
                                <polygon id="Rectangle" fill="#F39821" transform="translate(59.315165, 27.186990) rotate(-9.562790) translate(-59.315165, -27.186990) " points="46.5463228 26.9119759 72.0841232 26.9066604 72.0840077 27.4620037 46.5462073 27.4673193"></polygon>
                                <polygon id="Rectangle" fill="#65CADE" transform="translate(54.627733, 21.347600) rotate(-9.563330) translate(-54.627733, -21.347600) " points="38.2054515 20.0415341 71.0505593 20.0346972 71.0500148 22.6536657 38.204907 22.6605026"></polygon>
                                <polygon id="Path" fill="#82C56D" points="69.8687631 38.6563961 68 39 69.1315096 25.3436039 71 25"></polygon>
                                <polygon id="Path" fill="#4DA258" points="70.9502063 25.6257291 69 26 69.0497937 25.3745949 71 25"></polygon>
                                <polygon id="Path" fill="#82C56D" points="77 33.7961477 47.3371858 34 47 32.2038523 76.6631121 32"></polygon>
                                <polygon id="Path" fill="#46C2CC" points="72 38 43.0067636 47.7277732 29.7646945 50 29 45.3783274"></polygon>
                                <polygon id="Path" fill="#F39821" points="43.801192 53.6723392 42.9801501 48.9199677 72 44.1521161 71.8009862 43 32 49.5388825 32.2116542 50.7632388 40.9988315 49.3192953 41.807527 54"></polygon>
                                <path d="M72.0511805,40.7385346 C72.3861046,40.5370544 72.649041,40.2566013 72.8095518,39.929641 C72.9372594,39.6660083 73.0981779,39.3330932 72.9228795,39.137843 C72.7157397,38.9078017 72.1740949,39.0151743 71.9142286,39.1060511 C71.4619172,39.2687153 71.1312278,39.6173908 71.0315735,40.0367137 C70.9593313,40.3555323 70.995966,40.8666019 71.3013687,40.9784734 C71.5194647,41.058553 71.7813852,40.9010931 72.0511805,40.7385346" id="Path" fill="#A5DDEA"></path>
                                <path d="M73.9991255,40.2268557 C73.9754769,40.4245906 73.9360671,40.6215207 73.8808962,40.8176461 C73.8045657,41.0870034 72.9280097,41.0457019 73.004755,40.7743494 C73.0595138,40.5782173 73.0989236,40.3813537 73.1229843,40.1837585 C73.1553418,39.9118074 74.031483,39.9547051 73.9991255,40.2268557" id="Path" fill="#A5DDEA"></path>
                                <path d="M71.051275,46.7386308 C71.3862413,46.5370221 71.649196,46.2564552 71.8097145,45.9293925 C71.9370912,45.6660451 72.0983666,45.3331116 71.92271,45.1378506 C71.715894,44.9077966 71.1742004,45.0151752 70.9143108,45.106057 C70.4618784,45.2686344 70.1311174,45.6173734 70.0315763,46.036771 C69.9593277,46.3556073 69.9959656,46.8664053 70.3013958,46.9785828 C70.519169,47.0583669 70.7814555,46.9011983 71.051275,46.7386308" id="Path" fill="#FEECAA"></path>
                                <path d="M71.9991255,47.2269177 C71.9754757,47.4246367 71.9360639,47.621551 71.8808903,47.8176607 C71.8049709,48.0869964 70.9283712,48.0456982 71.0047054,47.7743675 C71.0598791,47.5782512 71.0992908,47.3814033 71.1229406,47.183824 C71.1552997,46.9116952 72.0314846,46.9547889 71.9991255,47.2269177" id="Path" fill="#FEECAA"></path>
                                <path d="M69.0514522,22.7388227 C69.3863354,22.5371469 69.6492636,22.2566056 69.8098714,21.9295985 C69.9372447,21.6659558 70.0981734,21.333328 69.9228639,21.1380704 C69.7160534,20.9077205 69.1740319,21.0150971 68.9144917,21.1062773 C68.4619379,21.2686926 68.131116,21.617499 68.0317808,22.0369752 C67.9591917,22.3558059 67.9958286,22.866595 68.3015931,22.9784707 C68.5193604,23.0585533 68.7812975,22.9010875 69.0514522,22.7388227" id="Path" fill="#F6978F"></path>
                                <path d="M70.9991255,23.2267983 C70.9754768,23.4245402 70.936067,23.6214799 70.880896,23.8176176 C70.8049802,24.0869881 69.9280074,24.0456846 70.0047529,23.7745183 C70.0599267,23.5783767 70.0993365,23.3814369 70.1229825,23.183699 C70.15534,22.9117346 71.031483,22.9548339 70.9991255,23.2267983" id="Path" fill="#F6978F"></path>
                                <path d="M60.0511155,2.73866552 C60.3862038,2.53718763 60.649187,2.25659471 60.8095387,1.92945703 C60.9372551,1.66581943 61.0981847,1.33319815 60.9228742,1.13794436 C60.7160626,0.907898807 60.1740382,1.01497347 59.9141542,1.10615189 C59.4616818,1.26858614 59.1309743,1.61739855 59.0317809,2.03683162 C58.9591914,2.35565616 58.9958286,2.86643528 59.3015947,2.97860873 C59.5193632,3.05838985 59.7813017,2.90092712 60.0511155,2.73866552" id="Path" fill="#BCDA86"></path>
                                <path d="M61.9991255,3.22696718 C61.9754741,3.42449584 61.9360643,3.62135942 61.8808962,3.81755792 C61.8045657,4.08691517 60.9280097,4.04581325 61.004755,3.77446075 C61.0599259,3.57832876 61.0993357,3.38139868 61.1229843,3.1836705 C61.1553418,2.91171943 62.031483,2.95481659 61.9991255,3.22696718" id="Path" fill="#BCDA86"></path>
                                <path d="M44.0044259,10.3473337 C44.0337868,10.5153851 44.1981177,10.628583 44.3715376,10.6002152 L53.6546048,9.08466983 C52.9769553,9.6985381 52.6767113,10.6093204 52.8615955,11.4902421 C52.868097,11.530685 52.8909627,11.5669488 52.9251315,11.5910069 C52.9593003,11.615065 53.0019541,11.6249331 53.0436517,11.6184269 L53.0451514,11.6181362 C53.1312256,11.6041365 53.1895807,11.5255322 53.1759199,11.4419911 C52.9717555,10.4800209 53.4110993,9.49714697 54.2748556,8.9835172 L55.0570674,8.85562307 L56.2543794,15.7435939 C56.2841209,15.9112628 56.4482524,16.0239918 56.6213442,15.9956332 C56.794436,15.9672746 56.9112105,15.8085233 56.8824284,15.6406972 L55.7067112,8.87800455 C56.7297651,9.54276334 56.9523116,10.8068805 56.9550109,10.8219953 C56.9688687,10.906018 57.0503588,10.9632647 57.1370671,10.9498894 L57.1385668,10.9495987 C57.2246,10.935744 57.28299,10.8572225 57.2693353,10.7737443 C57.1160571,9.95931659 56.6685266,9.22440314 56.0069389,8.70069678 L63.7339803,7.43890494 C63.8462998,7.42082002 63.9400853,7.34594575 63.9799047,7.24256961 C64.019724,7.13919347 63.9995064,7.02307598 63.9268901,6.9380863 C63.8542738,6.85309662 63.7403296,6.81219212 63.6281058,6.8308265 L56.8896266,7.93071599 C57.8744485,7.25248163 58.6549533,6.33212879 59.1507827,5.2644141 C59.3145434,4.88392907 59.6981511,3.9939022 59.2611562,3.54859811 C59.0512067,3.33408477 58.6981916,3.26548701 58.2342032,3.34629285 C57.9216784,3.4021012 57.4816842,3.56487554 56.8479367,4.33979769 C56.4823246,4.78713647 56.2009923,5.24581132 55.5921387,6.64305466 C55.520456,6.80815435 55.4553716,6.95726728 55.3965858,7.09388146 L54.3819298,1.25725854 C54.3526597,1.08929399 54.1884957,0.976080035 54.0151583,1.00431839 C53.8418209,1.03255675 53.7248752,1.1915662 53.7538809,1.35957384 L54.8078274,7.42088349 C54.6119745,7.27874661 54.3753314,7.1101589 54.0844014,6.90320295 C52.8226049,6.00649071 52.3382214,5.75244646 51.7875538,5.55014121 C50.8331834,5.19959503 50.3688951,5.27865685 50.0716666,5.38620419 C49.7105114,5.47220717 49.4188952,5.72965561 49.2969529,6.0701471 C49.1577864,6.66979616 49.9579939,7.24328506 50.2999117,7.48831858 C51.1040788,8.03989796 52.0264101,8.40833083 52.9980627,8.56611728 L44.2656631,9.9921368 C44.0923299,10.0203331 43.9753824,10.1793433 44.0044259,10.3473337 M54.8852088,7.86589693 L54.950893,8.24550995 L54.9502931,8.24754463 L54.193875,8.37078806 C52.8704406,8.35949988 51.5805557,7.96592014 50.4891662,7.24037837 C50.2225303,7.04911852 49.5138008,6.5413207 49.6076782,6.13787286 C49.6484684,5.96143709 49.8584179,5.79284938 50.1832397,5.67512865 C50.4285807,5.58647477 50.8196866,5.52456238 51.6750809,5.83848433 C52.1981551,6.03090686 52.663943,6.27623105 53.8963466,7.15201516 C54.2760553,7.42204617 54.6281706,7.67202105 54.8852088,7.86589693 M56.0927183,8.06093547 L55.6017364,8.1408693 C55.5937776,8.11225541 55.5811188,8.08506939 55.5642454,8.06035413 L55.4964617,7.6679517 C55.6050356,7.40664074 55.7412029,7.0944628 55.8857681,6.76310074 C56.4799252,5.3989936 56.7498602,4.95659619 57.0977766,4.53134821 C57.6649401,3.8372319 58.0338514,3.69538568 58.2914894,3.64975073 C58.3007872,3.64829739 58.310085,3.64655338 58.3190828,3.64539071 C58.5618363,3.57450319 58.8248053,3.61715736 59.0305117,3.76078609 C59.3241411,4.06046529 58.9852226,4.84875818 58.8571534,5.14553069 C58.2733434,6.3738471 57.3064157,7.39358014 56.0927183,8.06093547" id="Shape" fill="#FFFFFF" fill-rule="nonzero"></path>
                                <path d="M55,12 C55.1750804,12.098023 55.3526275,12.190333 55.5326413,12.27693 L56,15.8935578 L55.516955,16 L55,12 Z" id="Path" fill="#E4EBF1"></path>
                                <path d="M44,10.2771542 L50.3792244,9 C50.5812032,9.20859955 50.7881284,9.4150118 51,9.61923675 L44.1025907,11 L44,10.2771542 Z" id="Path" fill="#E4EBF1"></path>
                                <path d="M53.1754093,11.8500208 C53.1889586,11.9203626 53.131216,11.9865396 53.0461797,11.9981268 L53.0449968,11.9983712 C53.0038559,12.0038101 52.9617866,11.9955058 52.9280603,11.9752885 C52.8943339,11.9550712 52.8717189,11.9246003 52.8651992,11.8905911 C52.8046075,11.5955271 52.8087143,11.2938625 52.8773237,11 C52.9716583,11.052554 53.066683,11.1045296 53.1623976,11.1559268 C53.1249107,11.3865371 53.1292963,11.6204809 53.1754093,11.8500208" id="Path" fill="#E4EBF1"></path>
                                <path d="M64,31 C64,31 61.8950219,30.3974617 60.0498646,30.7360127 C58.2047073,31.0745637 56.0447553,30.9784241 53,29.9957694 L54.3239802,29.4265468 L53.7518218,28 C53.7518218,28 56.6322696,29.4531994 59.5117961,29.0638815 C62.3913226,28.674881 63.489572,28.8649392 63.8986515,28.9836066 L64,31 Z" id="Path" fill="#F15B43"></path>
                                <path d="M63,31 C63,31 62.6780467,30.8971615 62.1894504,30.8041314 C62.1557097,30.7268539 62.1258324,30.6498737 62.0975005,30.5752712 C61.8589975,29.9481349 62.103682,29.8342993 62.3432153,29 C62.5363203,29.0171389 62.727692,29.0543432 62.9150043,29.1111606 L63,31 Z" id="Path" fill="#CF2633"></path>
                                <path d="M75,32.838748 C75,32.838748 77.0167328,32.8715117 78.5666478,33.7028523 C80.1165627,34.534193 82.0547362,35.0513696 85,34.9959469 L83.9699376,34.0969354 L84.8360749,32.9364267 C84.8360749,32.9364267 81.9180374,33.4738126 79.4642655,32.3056489 C77.0104935,31.1368727 75.9895065,31.0052054 75.5969938,31 L75,32.838748 Z" id="Path" fill="#F15B43"></path>
                                <path d="M75.7207787,31 C76.1277627,31.0155252 76.5314327,31.075013 76.9236745,31.1772677 C76.9955812,31.802168 77.1260404,32.0202455 76.6969973,32.4956161 C76.5365932,32.686822 76.3486689,32.8565449 76.1385222,33 C75.4619147,32.920931 75,32.9145544 75,32.9145544 L75.7207787,31 Z" id="Path" fill="#CF2633"></path>
                                <path d="M67.8134713,29.2366011 C67.8134713,29.2366011 66.2891081,27.342836 64.9468238,27.0699862 C63.6045396,26.7968524 63.797313,27.3204061 63.5189844,28.6894818 C63.2403816,30.0588415 62.7972496,30.0662235 63.1038223,30.7899427 C63.4103951,31.5133781 63.8631247,32.4599767 67.3237227,31.7470465 C70.7845949,31.0344003 67.8134713,29.2366011 67.8134713,29.2366011" id="Path" fill="#F15B43"></path>
                                <path d="M66.9464891,28 C66.9337859,27.9897116 65.6691898,26.9766853 65.0189191,27.1376699 L65,27.0195044 C65.6870267,26.8485645 66.9470287,27.8562783 67,27.8990974 L66.9464891,28 Z" id="Path" fill="#CF2633"></path>
                                <path d="M64,31.5595997 C64.458538,30.1779774 68,31.7896726 68,31.7896726 C65.4908986,32.1988754 64.4871424,31.9505578 64,31.5595997" id="Path" fill="#CF2633"></path>
                                <path d="M71.5675121,29.2966244 C71.5675121,29.2966244 73.5684776,27.8751363 74.9468466,28.0088784 C76.3249381,28.1426206 75.9939409,28.6046924 75.8874003,30.0488138 C75.7814146,31.4932291 76.2095191,31.6340258 75.7128845,32.2604094 C75.21625,32.8864991 74.5165224,33.6904217 71.3527662,31.9382525 C68.188455,30.1857893 71.5675121,29.2966244 71.5675121,29.2966244" id="Path" fill="#F15B43"></path>
                                <path d="M74.9997788,32.8548099 C75.0263299,31.7972674 72.6561999,31.964896 71.5522633,32.0996831 C71.2183092,32.140735 71,32.1785939 71,32.1785939 C73.3146677,33.1141211 74.3852678,33.1077352 74.9997788,32.8548099" id="Path" fill="#CF2633"></path>
                                <path d="M71.5284184,30 C72.0011601,30.0938137 72.5140876,30.1064222 73,30.0361736 C72.6189504,30.1403576 72.2503057,30.2578928 71.8963138,30.3880627 C71.6998366,30.4845257 71.9268204,30.511254 72.7047394,30.6332395 C72.7047394,30.6332395 71.4223715,30.6133441 71,31 L71.5284184,30 Z" id="Path" fill="#CF2633"></path>
                                <path d="M68,29.3143693 C67.6544524,29.3410778 67.3107592,29.2314951 67.0140175,29 C67.229499,29.2576452 67.4320813,29.5329137 67.6205257,29.8241222 C67.7166458,30.0237321 67.5574468,30.0078023 67,30.0013004 C67,30.0013004 67.8553191,30.2935631 67.9987484,31 L68,29.3143693 Z" id="Path" fill="#CF2633"></path>
                                <path d="M70,32.1485369 C70,32.1485369 70.62635,32.8892708 70.3660274,34.9255922 C70.3660274,34.9255922 70.671652,35.0342778 71.2142917,34.3236414 C71.5166893,34.5012014 71.7705995,34.7318631 71.958821,35 C71.958821,35 72.2575518,32.9516953 71.2458062,32 L70,32.1485369 Z" id="Path" fill="#F15B43"></path>
                                <path d="M72.1859791,34 L72.0814362,33.9978481 C72.0817319,33.982792 72.1007851,32.5185585 71.8134401,32.0824818 L71.8943017,32 C72.2059047,32.4733718 72.1871383,33.9379578 72.1859791,34 Z" id="Path" fill="#CF2633"></path>
                                <path d="M69,31.4223651 C69,31.4223651 68.0985849,31.9909654 67.6790094,33.9997615 C67.6790094,33.9997615 67.3248821,34.0354895 67.0022406,33.2323034 C66.6279624,33.3342807 66.286131,33.4981727 66,33.7128302 C66,33.7128302 66.3831368,31.6835391 67.7561321,31 L69,31.4223651 Z" id="Path" fill="#F15B43"></path>
                                <path d="M67.1317363,34 L67,33.9653582 C67.0160958,33.9006941 67.4008232,32.3783675 67.9214066,32 L68,32.1139367 C67.5194606,32.4630584 67.1354805,33.9846045 67.1317363,34 Z" id="Path" fill="#CF2633"></path>
                                <path d="M68.2098876,31 L69,31.4487461 C68.8740641,31.6061155 68.7695001,31.790403 68.6907865,31.9937151 C68.574247,32.014992 68.455707,31.9818639 68.3559551,31.9001405 C68.1770374,31.7372364 68.050296,31.4936366 68,31.2159866 C68.0647003,31.1356303 68.1349652,31.0633236 68.2098876,31" id="Path" fill="#CF2633"></path>
                                <path d="M70.8210731,32 C70.8897263,32.1338406 70.9497234,32.280218 71,32.4365353 C70.911618,32.6490834 70.7919536,32.8169583 70.6533968,32.9227787 C70.4964019,33.0298543 70.3212731,33.0254212 70.1661618,32.9104451 C70.1330772,32.65958 70.0769816,32.4194687 70,32.1992066 L70.8210731,32 Z" id="Path" fill="#CF2633"></path>
                                <path d="M71.185031,31.9410905 C71.5205914,31.7508325 71.7682389,31.4248189 71.8709828,31.0380747 C71.9465829,30.8182415 72.1247453,30.3011179 71.8598807,29.8678598 C71.7173427,29.6220111 71.475143,29.4592547 71.2035345,29.4268003 C71.0177063,29.4192775 70.9799063,29.5109443 70.7116053,29.5321196 C70.5128993,29.5455256 70.3137146,29.5153566 70.1266298,29.4435176 C69.7155874,29.2950118 69.5183928,29.1297886 69.2268302,29.0375645 C68.9645572,28.94748 68.676507,29.0223581 68.4840462,29.23065 C68.1431927,29.5454329 67.9654225,30.0128431 68.0055981,30.4886309 C68.0087702,30.6011945 68.0304457,31.3356436 68.4967343,31.6418498 C68.7682074,31.8201683 68.9225796,31.6772349 69.5448264,31.7106696 C70.5165254,31.7630506 70.7264081,32.1436491 71.185031,31.9410905" id="Path" fill="#F15B43"></path>
                                <path d="M67.960247,31.6041545 C65.5563921,32.3874145 64.5360638,31.8976159 64.0262009,31.0955577 L64,31 L68,31.5331389 L67.960247,31.6041545 Z" id="Path" fill="#CF2633"></path>
                                <path d="M74.9529073,32.7920579 C74.9529073,32.7920579 74.9702066,32.7944108 75,32.7982344 C74.3701746,33.1214693 73.2908858,33.160881 71,32.1173528 L71.242832,32 L73.3498318,32.4167642 L74.9529073,32.7920579 Z" id="Path" fill="#CF2633"></path>
                                <path d="M64,31 C64,31 61.8950219,30.3974617 60.0498646,30.7360127 C58.2047073,31.0745637 56.0447553,30.9784241 53,29.9957694 L54.3239802,29.4265468 L53.7518218,28 C53.7518218,28 56.6322696,29.4531994 59.5117961,29.0638815 C62.3913226,28.674881 63.489572,28.8649392 63.8986515,28.9836066 L64,31 Z" id="Path" fill="#F15B43"></path>
                                <path d="M53.8793463,28.127025 L53.7743658,27.872975 C53.7743658,27.872975 53.9384903,27.9529208 54.2256342,28.0686942 L53.8793463,28.127025 Z" id="Path" fill="#CF2633"></path>
                                <path d="M63,31 C63,31 62.6780467,30.8971615 62.1894504,30.8041314 C62.1557097,30.7268539 62.1258324,30.6498737 62.0975005,30.5752712 C61.8589975,29.9481349 62.103682,29.8342993 62.3432153,29 C62.5363203,29.0171389 62.727692,29.0543432 62.9150043,29.1111606 L63,31 Z" id="Path" fill="#CF2633"></path>
                                <path d="M75,32.838748 C75,32.838748 77.0167328,32.8715117 78.5666478,33.7028523 C80.1165627,34.534193 82.0547362,35.0513696 85,34.9959469 L83.9699376,34.0969354 L84.8360749,32.9364267 C84.8360749,32.9364267 81.9180374,33.4738126 79.4642655,32.3056489 C77.0104935,31.1368727 75.9895065,31.0052054 75.5969938,31 L75,32.838748 Z" id="Path" fill="#F15B43"></path>
                                <path d="M75.7207787,31 C76.1277627,31.0155252 76.5314327,31.075013 76.9236745,31.1772677 C76.9955812,31.802168 77.1260404,32.0202455 76.6969973,32.4956161 C76.5365932,32.686822 76.3486689,32.8565449 76.1385222,33 C75.4619147,32.920931 75,32.9145544 75,32.9145544 L75.7207787,31 Z" id="Path" fill="#CF2633"></path>
                                <path d="M67.8134713,29.2366011 C67.8134713,29.2366011 66.2891081,27.342836 64.9468238,27.0699862 C63.6045396,26.7968524 63.797313,27.3204061 63.5189844,28.6894818 C63.2403816,30.0588415 62.7972496,30.0662235 63.1038223,30.7899427 C63.4103951,31.5133781 63.8631247,32.4599767 67.3237227,31.7470465 C70.7845949,31.0344003 67.8134713,29.2366011 67.8134713,29.2366011" id="Path" fill="#F15B43"></path>
                                <path d="M65,26.9387021 L64,27.099482 C64.16708,26.9079081 64.4510229,26.8554992 65,26.9387021" id="Path" fill="#CF2633"></path>
                                <path d="M66.9464891,28 C66.9337859,27.9897116 65.6691898,26.9766853 65.0189191,27.1376699 L65,27.0195044 C65.6870267,26.8485645 66.9470287,27.8562783 67,27.8990974 L66.9464891,28 Z" id="Path" fill="#CF2633"></path>
                                <path d="M64,31.5595997 C64.458538,30.1779774 68,31.7896726 68,31.7896726 C65.4908986,32.1988754 64.4871424,31.9505578 64,31.5595997" id="Path" fill="#CF2633"></path>
                                <path d="M71.5675121,29.2966244 C71.5675121,29.2966244 73.5684776,27.8751363 74.9468466,28.0088784 C76.3249381,28.1426206 75.9939409,28.6046924 75.8874003,30.0488138 C75.7814146,31.4932291 76.2095191,31.6340258 75.7128845,32.2604094 C75.21625,32.8864991 74.5165224,33.6904217 71.3527662,31.9382525 C68.188455,30.1857893 71.5675121,29.2966244 71.5675121,29.2966244" id="Path" fill="#F15B43"></path>
                                <path d="M74.9997788,32.8548099 C75.0263299,31.7972674 72.6561999,31.964896 71.5522633,32.0996831 C71.2183092,32.140735 71,32.1785939 71,32.1785939 C73.3146677,33.1141211 74.3852678,33.1077352 74.9997788,32.8548099" id="Path" fill="#CF2633"></path>
                                <path d="M71.5284184,30 C72.0011601,30.0938137 72.5140876,30.1064222 73,30.0361736 C72.6189504,30.1403576 72.2503057,30.2578928 71.8963138,30.3880627 C71.6998366,30.4845257 71.9268204,30.511254 72.7047394,30.6332395 C72.7047394,30.6332395 71.4223715,30.6133441 71,31 L71.5284184,30 Z" id="Path" fill="#CF2633"></path>
                                <path d="M68,29.3143693 C67.6544524,29.3410778 67.3107592,29.2314951 67.0140175,29 C67.229499,29.2576452 67.4320813,29.5329137 67.6205257,29.8241222 C67.7166458,30.0237321 67.5574468,30.0078023 67,30.0013004 C67,30.0013004 67.8553191,30.2935631 67.9987484,31 L68,29.3143693 Z" id="Path" fill="#CF2633"></path>
                                <path d="M70,32.1485369 C70,32.1485369 70.62635,32.8892708 70.3660274,34.9255922 C70.3660274,34.9255922 70.671652,35.0342778 71.2142917,34.3236414 C71.5166893,34.5012014 71.7705995,34.7318631 71.958821,35 C71.958821,35 72.2575518,32.9516953 71.2458062,32 L70,32.1485369 Z" id="Path" fill="#F15B43"></path>
                                <path d="M72.1859791,34 L72.0814362,33.9978481 C72.0817319,33.982792 72.1007851,32.5185585 71.8134401,32.0824818 L71.8943017,32 C72.2059047,32.4733718 72.1871383,33.9379578 72.1859791,34 Z" id="Path" fill="#CF2633"></path>
                                <path d="M69,31.4223651 C69,31.4223651 68.0985849,31.9909654 67.6790094,33.9997615 C67.6790094,33.9997615 67.3248821,34.0354895 67.0022406,33.2323034 C66.6279624,33.3342807 66.286131,33.4981727 66,33.7128302 C66,33.7128302 66.3831368,31.6835391 67.7561321,31 L69,31.4223651 Z" id="Path" fill="#F15B43"></path>
                                <path d="M67.1317363,34 L67,33.9653582 C67.0160958,33.9006941 67.4008232,32.3783675 67.9214066,32 L68,32.1139367 C67.5194606,32.4630584 67.1354805,33.9846045 67.1317363,34 Z" id="Path" fill="#CF2633"></path>
                                <path d="M68.2098876,31 L69,31.4487461 C68.8740641,31.6061155 68.7695001,31.790403 68.6907865,31.9937151 C68.574247,32.014992 68.455707,31.9818639 68.3559551,31.9001405 C68.1770374,31.7372364 68.050296,31.4936366 68,31.2159866 C68.0647003,31.1356303 68.1349652,31.0633236 68.2098876,31" id="Path" fill="#CF2633"></path>
                                <path d="M70.8210731,32 C70.8897263,32.1338406 70.9497234,32.280218 71,32.4365353 C70.911618,32.6490834 70.7919536,32.8169583 70.6533968,32.9227787 C70.4964019,33.0298543 70.3212731,33.0254212 70.1661618,32.9104451 C70.1330772,32.65958 70.0769816,32.4194687 70,32.1992066 L70.8210731,32 Z" id="Path" fill="#CF2633"></path>
                                <path d="M71.185031,31.9410905 C71.5205914,31.7508325 71.7682389,31.4248189 71.8709828,31.0380747 C71.9465829,30.8182415 72.1247453,30.3011179 71.8598807,29.8678598 C71.7173427,29.6220111 71.475143,29.4592547 71.2035345,29.4268003 C71.0177063,29.4192775 70.9799063,29.5109443 70.7116053,29.5321196 C70.5128993,29.5455256 70.3137146,29.5153566 70.1266298,29.4435176 C69.7155874,29.2950118 69.5183928,29.1297886 69.2268302,29.0375645 C68.9645572,28.94748 68.676507,29.0223581 68.4840462,29.23065 C68.1431927,29.5454329 67.9654225,30.0128431 68.0055981,30.4886309 C68.0087702,30.6011945 68.0304457,31.3356436 68.4967343,31.6418498 C68.7682074,31.8201683 68.9225796,31.6772349 69.5448264,31.7106696 C70.5165254,31.7630506 70.7264081,32.1436491 71.185031,31.9410905" id="Path" fill="#F15B43"></path>
                                <path d="M67.960247,31.6041545 C65.5563921,32.3874145 64.5360638,31.8976159 64.0262009,31.0955577 L64,31 L68,31.5331389 L67.960247,31.6041545 Z" id="Path" fill="#CF2633"></path>
                                <path d="M74.9529073,32.7920579 C74.9529073,32.7920579 74.9702066,32.7944108 75,32.7982344 C74.3701746,33.1214693 73.2908858,33.160881 71,32.1173528 L71.242832,32 L73.3498318,32.4167642 L74.9529073,32.7920579 Z" id="Path" fill="#CF2633"></path>
                                <polygon id="Rectangle" fill="#65CADE" transform="translate(45.393266, 23.670277) rotate(-9.566520) translate(-45.393266, -23.670277) " points="44.0865438 18.1647129 46.7022776 18.1641682 46.6999875 29.1758408 44.0842536 29.1763854"></polygon>
                                <polygon id="Rectangle" fill="#F15B43" transform="translate(40.254847, 48.975182) rotate(-9.562090) translate(-40.254847, -48.975182) " points="38.1633602 43.582989 42.3485756 43.582118 42.3463336 54.3673745 38.1611182 54.3682455"></polygon>
                                <path d="M41.147682,45 C41.3244615,45.1142081 41.4805208,45.2508486 41.610642,45.4053526 L42,47.4138289 C41.8972693,47.3530809 41.7865595,47.3032244 41.6702246,47.2653196 C41.3241995,48.0516427 41.0081249,47.9992766 41.0081249,47.9992766 C40.771069,45.973622 40,45.362961 40,45.362961 L41.147682,45 Z" id="Path" fill="#CF2633"></path>
                                <path d="M38,47.2283799 C38.0102314,46.8071209 38.1557609,46.3947601 38.4230216,46.0297394 L39.8010791,46 C39.8010791,46 39.2827338,46.8324207 40,48.8357251 C40,48.8357251 39.6931655,48.9886707 38.9543165,48.3539464 C38.7113713,48.5380092 38.5160421,48.7574069 38.3791367,49 L38,47.2283799 Z" id="Path" fill="#CF2633"></path>
                                <path d="M40.7769152,45.818676 C40.4299568,45.8177953 40.0844141,45.8698162 39.749231,45.9733921 C39.3013036,46.1355562 38,45.5034885 38,45.5034885 L40.3389483,44 L42,44.6283437 C42,44.6283437 41.8002051,45.8579475 41.3721986,45.9598502 C41.1664203,46.0431599 40.9376692,45.9889105 40.7769152,45.818676" id="Path" fill="#CF2633"></path>
                                <path d="M37.4148572,43.2175441 C37.4148572,43.2175441 35.3947535,41.8449298 34.0288472,42.0145124 C32.6626643,42.1840949 33.0022054,42.6381862 33.1407315,44.0825924 C33.2789811,45.5264078 32.8567668,45.6788548 33.3644194,46.29337 C33.8720721,46.9081807 34.5854402,47.6955283 37.688315,45.8584823 C40.7914663,44.0217318 37.4148572,43.2175441 37.4148572,43.2175441" id="Path" fill="#F15B43"></path>
                                <path d="M35.9750549,42.1630463 C35.9615632,42.1587114 34.5910659,41.7324937 34.0447995,42.0757218 L34,41.9837722 C34.5806291,41.6203031 35.942217,42.0439152 36,42.0618438 L35.9750549,42.1630463 Z" id="Path" fill="#F6978F"></path>
                                <path d="M41.1544678,42.3122987 C41.1544678,42.3122987 42.6361792,40.3894319 43.9732999,40.0841204 C45.3109713,39.778809 45.1303017,40.3046704 45.4406899,41.6602873 C45.751629,43.0161876 46.195867,43.0125023 45.9058592,43.7399203 C45.6158514,44.4679053 45.1851085,45.4212594 41.7036374,44.7984467 C38.2224418,44.1753506 41.1544678,42.3122987 41.1544678,42.3122987" id="Path" fill="#F15B43"></path>
                                <path d="M42,42.3400576 C42.3416416,42.3557679 42.6789586,42.2372214 42.9676143,42 C42.7596029,42.2603849 42.5646448,42.5377133 42.3839308,42.8302914 C42.292707,43.0294589 42.4494438,43.0089657 43,42.9855908 C43,42.9855908 42.1609394,43.2997118 42.0321384,44 L42,42.3400576 Z" id="Path" fill="#CF2633"></path>
                                <path d="M37.4397012,44 C36.9808354,44.1011445 36.4789119,44.1208383 36,44.0564892 C36.3777072,44.1562419 36.7438063,44.2696546 37.0960512,44.3960316 C37.2927784,44.4905851 37.0718605,44.5203482 36.3148346,44.6537761 C36.3148346,44.6537761 37.5699039,44.6165216 38,45 L37.4397012,44 Z" id="Path" fill="#CF2633"></path>
                                <path d="M40,45.461334 C40,45.461334 40.8954664,46.0025622 41.3972276,47.9999191 C41.3972276,47.9999191 41.7398023,48.0246087 42.011476,47.2112406 C42.376825,47.3016529 42.7139724,47.4550222 43,47.6609233 C43,47.6609233 42.5323259,45.6416509 41.1766845,45 L40,45.461334 Z" id="Path" fill="#F15B43"></path>
                                <path d="M42.8783195,47 C42.8744741,46.9923676 42.4615374,46.2268553 42,46.0595038 L42.069231,46 C42.5692292,46.1816402 42.9825168,46.9471525 43,46.9796443 L42.8783195,47 Z" id="Path" fill="#F6978F"></path>
                                <path d="M39,45.105967 C39,45.105967 38.3789591,45.8615697 38.7513768,47.8730056 C38.7513768,47.8730056 38.4358563,47.9911464 37.8317121,47.3041594 C37.5231211,47.4904901 37.2679503,47.7277775 37.0834286,48 C37.0834286,48 36.6696312,45.9777737 37.6851589,45 L39,45.105967 Z" id="Path" fill="#F15B43"></path>
                                <path d="M39,45.105967 C39,45.105967 38.3789591,45.8615697 38.7513768,47.8730056 C38.7513768,47.8730056 38.4358563,47.9911464 37.8317121,47.3041594 C37.5231211,47.4904901 37.2679503,47.7277775 37.0834286,48 C37.0834286,48 36.6696312,45.9777737 37.6851589,45 L39,45.105967 Z" id="Path" fill="#F15B43"></path>
                                <path d="M37.8484062,48 C37.845517,47.9383593 37.7799618,46.484588 38.0759714,46 L38.1597193,46.0776767 C37.8865274,46.5248511 37.9523694,47.9775424 37.952949,47.9921626 L37.8484062,48 Z" id="Path" fill="#F6978F"></path>
                                <path d="M38,45.3140176 C38.0353599,45.204107 38.0747942,45.0991666 38.1180009,45 L39,45.1687127 C38.9354484,45.3907531 38.8879181,45.6293221 38.8588616,45.8771295 C38.7403667,45.9972859 38.602968,46.0307374 38.4724665,45.9712022 C38.2798575,45.8631998 38.112863,45.6309162 38,45.3140176" id="Path" fill="#CF2633"></path>
                                <path d="M41.7832993,44 C41.8601722,44.0724495 41.9327102,44.1559968 42,44.2495898 C41.9504412,44.4421553 41.8736379,44.6138594 41.7755843,44.7513015 C41.6174064,44.9472484 41.4162258,45.0328396 41.2178353,44.9885927 C41.1561768,44.8449181 41.0829376,44.7147882 41,44.6015476 L41.7832993,44 Z" id="Path" fill="#CF2633"></path>
                                <path d="M40.5996516,44.4049212 C40.8672725,44.1177018 41.010551,43.7299871 40.9965119,43.3310092 C41.0053608,43.098444 41.0257401,42.5519019 40.6438961,42.2259773 C40.4346368,42.038772 40.1537707,41.9619901 39.8826215,42.0178634 C39.701621,42.0703781 39.6916995,42.1690169 39.4396396,42.2748799 C39.2521361,42.3509588 39.0514557,42.3859632 38.8502484,42.3776865 C38.4110205,42.3682394 38.1723681,42.2748799 37.8645332,42.280437 C37.5855722,42.2788311 37.33002,42.4417868 37.2056914,42.7005547 C36.969262,43.1075112 36.9345893,43.6069906 37.1123756,44.0448203 C37.1485757,44.1504055 37.3840104,44.8389318 37.9224533,44.9798046 C38.2364556,45.0620498 38.343447,44.8772758 38.952145,44.7105625 C39.9035371,44.4499339 40.2170031,44.7433494 40.5996516,44.4049212" id="Path" fill="#F15B43"></path>
                                <path d="M41,44.8348195 C41,44.8348195 41.0480602,44.8122 41.1311523,44.7753559 C41.1047888,44.7361542 41.097069,44.690557 41.1094383,44.6471012 C41.2790967,44.5689823 42.2640417,44.3388233 42.2640417,44.3388233 C43.3199189,43.9918359 44.6997684,43.7199358 45,44.5300395 C44.5576144,44.8963818 43.6629994,45.1493935 41.515055,44.900346 L41.5153445,44.9010456 L41.2350898,44.8816908 L41.24696,44.8669998 C41.1647365,44.856273 41.0854082,44.8469454 41,44.8348195" id="Path" fill="#CF2633"></path>
                                <path d="M34.0011099,45.8733832 C33.9563186,45.10124 35.2757357,44.9731446 36.4109447,45.0041642 L36.4100548,45.003941 C36.4100548,45.003941 37.4580541,45.0322827 37.9151634,45.0865113 L37.9246556,45.1280195 C37.9721166,45.1344913 38,45.1387314 38,45.1387314 C37.9768627,45.1483273 37.9560985,45.1563612 37.9332579,45.165734 L37.9332579,45.1664035 L37.808376,45.217731 L37.8054097,45.2175078 C35.6438555,46.0940912 34.6083147,46.1025714 34.0011099,45.8733832" id="Path" fill="#CF2633"></path>
                                <path d="M64,15 C64,15 49.8429295,19.0514772 46.1127995,21.9022381 L45.5683195,22 L45,18.4078782 L64,15 Z" id="Path" fill="#CF2633"></path>
                                <polygon id="Rectangle" fill="#46C2CC" transform="translate(45.781427, 19.766647) rotate(-9.573100) translate(-45.781427, -19.766647) " points="45.5045161 18.0456382 46.0590547 18.0455227 46.0583384 21.4876552 45.5037998 21.4877708"></polygon>
                                <polygon id="Rectangle" fill="#303443" transform="translate(49.703140, 10.153502) rotate(-9.554161) translate(-49.703140, -10.153502) " points="47.1178778 10.0059675 52.2884645 10.0048922 52.288403 10.3010369 47.1178163 10.3021122"></polygon>
                                <polygon id="Rectangle" fill="#303443" transform="translate(46.682935, 23.452740) rotate(-9.563240) translate(-46.682935, -23.452740) " points="46.5361851 17.9469671 46.8319745 17.9469056 46.8296851 28.9585132 46.5338957 28.9585748"></polygon>
                                <polygon id="Rectangle" fill="#303443" transform="translate(59.173196, 33.718795) rotate(-0.559510) translate(-59.173196, -33.718795) " points="53.509447 33.5708097 64.8369496 33.5706691 64.836946 33.8667795 53.5094433 33.86692"></polygon>
                                <polygon id="Rectangle" fill="#303443" transform="translate(56.792856, 43.186479) rotate(-18.222480) translate(-56.792856, -43.186479) " points="54.1082568 43.0395601 59.4775668 43.0375339 59.4774553 43.3333974 54.1081453 43.3354235"></polygon>
                                <polygon id="Path" fill="#303443" points="43.7207117 54 43 49.3578421 44.9584012 49 45 49.2681096 43.2886856 49.5810855 43.9677985 53.9548619"></polygon>
                                <path d="M60.3355133,13.9988951 C59.8890617,13.9988596 59.4430394,13.9693621 59,13.9105715 L59.0354576,13.6053445 C60.6727361,13.837893 62.3385179,13.6297986 63.8811999,13 L64,13.2799922 C62.8346534,13.7743175 61.5894133,14.01861 60.3355133,13.9988951 Z" id="Path" fill="#303443"></path>
                                <polygon id="Rectangle" fill="#303443" transform="translate(68.271926, 20.373962) rotate(-9.616590) translate(-68.271926, -20.373962) " points="66.3116335 20.2860992 70.2322547 20.2852787 70.2322178 20.4618253 66.3115966 20.4626458"></polygon>
                                <path d="M32,26.6039767 C32,26.6039767 33.0588235,25.328622 34,26.4844329 C34,26.4844329 33.3235294,27.5601052 32,26.6039767" id="Path" fill="#F5F7F7"></path>
                                <path d="M33,24 C33,24 34.3844675,25.752687 33.8953795,25.9006411 C33.6634933,26.0331196 33.3540451,26.0331196 33.1221589,25.9006411" id="Path" fill="#C58877"></path>
                                <path d="M32,31 C32,31 29.4615385,29.7272727 29,29 C29,29 30.6153846,29.8843434 32,29.7727273 L32,31 Z" id="Path" fill="#C58877"></path>
                                <path d="M30.5,24 C30.7788995,23.9906662 31,23.7695656 31,23.5 C31,23.2304344 30.7788995,23.0093338 30.5,23 C30.2211005,23.0093338 30,23.2304344 30,23.5 C30,23.7695656 30.2211005,23.9906662 30.5,24" id="Path" fill="#303443"></path>
                                <path d="M33.5,24 C33.7788691,23.9907679 34,23.7696371 34,23.5 C34,23.2303629 33.7788691,23.0092321 33.5,23 C33.2211309,23.0092321 33,23.2303629 33,23.5 C33,23.7696371 33.2211309,23.9907679 33.5,24" id="Path" fill="#303443"></path>
                                <path d="M32,27.1016601 C32.0026858,27.0330581 32.010288,26.9647895 32.0227372,26.8974776 C32.0347329,26.8385845 32.050712,26.780739 32.0705437,26.7244146 C32.1103938,26.6110083 32.1644448,26.5041478 32.2311616,26.4068678 C32.370922,26.1804341 32.5945398,26.0318401 32.8433173,26.0000903 C32.9120146,25.999067 32.9805886,26.0067396 33.0476607,26.0229537 C33.1106287,26.0449143 33.171852,26.0724199 33.2307244,26.1051983 L33.3802653,26.2191976 L33.5035709,26.3430409 C33.5910217,26.4160766 33.6513628,26.5078477 33.7382306,26.5827887 C33.8090657,26.6663035 33.8877715,26.7475955 33.9693922,26.8323805 L34,26.8638176 L33.9772628,27.0029031 C33.9368173,27.2445312 33.8324613,27.4680276 33.677015,27.6459353 C33.5078325,27.8637285 33.2613795,27.9925351 32.9995627,28 C32.7529433,27.9909632 32.5177569,27.8845335 32.3378516,27.7005534 C32.2620876,27.6160773 32.1933176,27.5244799 32.1323422,27.4268281 C32.072141,27.3270877 32.0274288,27.2172286 32,27.1016601 M32.0577175,27.094039 C32.145939,27.1348514 32.2370996,27.1676699 32.3302726,27.192161 C32.4116018,27.2169296 32.4987611,27.2540826 32.5745518,27.2820267 C32.7030114,27.325206 32.8380166,27.3404198 32.97187,27.3268008 C33.0884395,27.3100798 33.1998795,27.2642165 33.2974785,27.1927961 C33.4216283,27.0876038 33.5388117,26.9730026 33.6481562,26.8498455 L33.6560268,27.0206857 C33.6316542,26.9194097 33.6016717,26.8198352 33.566244,26.7225093 C33.5218713,26.6343783 33.4620515,26.5565911 33.3901764,26.4935581 C33.3538911,26.4660019 33.3147549,26.4431934 33.2735753,26.425603 C33.2301414,26.4167117 33.186999,26.4163942 33.1485206,26.4119485 C33.1080017,26.4189346 33.0703979,26.4367172 33.0377496,26.4452909 C33.0045183,26.4618034 32.974202,26.486572 32.9462178,26.5002265 C32.8369042,26.5796132 32.7007725,26.6504262 32.5544381,26.7634728 C32.4801049,26.8165031 32.4046057,26.8758844 32.321236,26.9339954 C32.2824661,26.965115 32.2378662,26.9936942 32.1947238,27.0241787 L32.1262207,27.0692704 C32.1040665,27.080067 32.0772482,27.1111865 32.0577175,27.094039" id="Shape" fill="#CF2633" fill-rule="nonzero"></path>
                                <path d="M27.1041131,28.4670531 C26.5826576,27.2008836 24.4968356,24.7792314 25.070147,24.1190866 C25.6440377,23.458636 26.4783665,24.4490061 27.0519675,25.3299127 L27.0282123,24.6709909 C26.9691351,23.61914 27.4741599,22.6212378 28.3353274,22.088201 C28.4623771,22.0180072 28.5754753,21.9227183 28.6684795,21.8075095 C29.1377895,21.2020964 29.763536,21.257134 30.1807004,21.257134 C30.5978648,21.257134 31.1714658,20.7067585 31.2757569,19.9362328 C31.380048,19.1657071 32.8919793,18.0099185 33.9873255,20.4315707 C33.9873255,20.4315707 34.5609265,15.5882663 27.9905874,16.0282609 C21.4202483,16.4688671 22.9846147,23.458636 23.6625069,24.3392368 C24.3401093,25.2195318 27.1582865,28.4003965 27.2677921,29 C27.2275304,28.8178086 27.1727766,28.6395273 27.1041131,28.4670531" id="Path" fill="#303443"></path>
                                <path d="M23.3511223,20.1168528 C23.3511223,20.1168528 21.3539612,21.0877687 21.6668778,24.0005161 C21.9797944,26.9132635 24.5874326,31.3902642 23.7529884,33.4939151 C22.9185441,35.5975661 21.7190305,36.6224216 19.9458365,37 C19.9458365,37 21.8754888,33.5478549 21.1453501,31.8757221 C20.4152114,30.2035893 18.3291008,26.1581068 19.2156978,23.0296003 C20.1022948,19.9010938 22.6386576,19.0158823 23.6391215,19 C23.6391215,19 24.6181448,19.6313949 23.3511223,20.1168528" id="Path" fill="#303443"></path>
                                <path d="M27.7380731,32 C27.2367603,32.5842284 26.9784129,33.2856303 27.0014128,34 L34,33.7909291 C34,33.7909291 33.5180227,32.6742473 32.3280331,32.2788474 L27.7380731,32 Z" id="Path" fill="#FFCC5D"></path>
                                <path d="M30.1064492,33.0007243 C30.1064492,33.0007243 33.4526392,32.8662129 35.5678777,36.2634491 C37.6831163,39.6603858 42.4952841,50.337414 42.4952841,50.337414 L54.5521439,48.665758 C54.5521439,48.665758 55.2924774,51.3619773 54.8694297,52.4407646 C54.8694297,52.4407646 47.9949044,55.9458496 41.2787281,56.9704129 C41.2787281,56.9704129 39.8512358,57.3478836 38.7407356,55.4063061 L30.4384242,55.8916256 C30.4384242,55.8916256 26.7896376,48.5039849 26.260828,47.2100992 C25.7317246,45.9156144 23.4049621,38.3662005 26.8425186,34.1600985 C27.7731866,33.4131432 28.9220996,33.0050401 30.1064492,33.0007243" id="Path" fill="#82C56D"></path>
                                <polygon id="Path" fill="#4DA258" points="39 54.8563277 31 40 36.638961 55"></polygon>
                                <polygon id="Rectangle" fill="#303443" transform="translate(36.858337, 51.298451) rotate(-29.699890) translate(-36.858337, -51.298451) " points="36.7121016 48.0339347 37.0081385 48.0337729 37.0045715 54.5629675 36.7085346 54.5631293"></polygon>
                                <path d="M38.8088899,55 L30.5061354,55.4811321 C30.3648417,57.3610709 29.9735036,59.2131773 29.3426921,60.9874214 C28.3555281,63.5537561 26.6279911,71.6079665 29.9244138,79.7337526 C29.9244138,79.7337526 30.9644616,88.2872117 29.8362741,96.2704403 C28.7080867,104.253669 28.1792488,120.487421 28.6023191,123 L37.4867953,123 C37.4867953,123 40.6598224,104.396226 41.7174982,94.3459119 C42.7751739,84.2958945 46.477039,64.6226415 41.3473117,56.5506115 C41.3473117,56.5506115 39.9194494,56.9245283 38.8088899,55" id="Path" fill="#F15B43"></path>
                                <path d="M61.0692911,49.5936327 C59.8824075,49.0791337 60.7186209,48.2562518 61.2850881,47.6578499 C61.8512555,47.0594479 64.4411194,46.1475973 62.283449,46.0051206 C60.1257786,45.862644 55,48.7406725 55,48.7406725 C55,48.7406725 55.6956457,51.3736411 55.3647569,52.5888087 L55.3674544,52.5922915 C55.7885583,52.0553128 57.6974627,52.0461309 58.1020821,52.0461309 C58.5067015,52.0461309 59.6935851,52.8440002 60.0442552,52.9864769 C60.3949254,53.1289535 65.628003,52.1031216 65.9786732,51.9036543 C66.3293433,51.704187 62.2561746,50.1084484 61.0692911,49.5936327" id="Path" fill="#E9A48A"></path>
                                <path d="M64.174341,51.5044461 L63.1132907,51.0131123 L61,50 L63.0232638,51.2168802 L64.0430174,51.8119066 C64.1542432,51.8749038 64.2654691,51.9376016 64.3766949,52 C64.5980453,51.9523738 64.8081079,51.9059533 65,51.8622457 C64.7252392,51.7492087 64.4488265,51.6280332 64.174341,51.5044461" id="Path" fill="#C58877"></path>
                                <path d="M63,51.9009093 C62.7326728,51.8508269 62.4715276,51.7857218 62.2190961,51.7062252 C61.9698715,51.6374446 61.7213115,51.562602 61.4737483,51.4861273 C60.9789588,51.3315458 60.4877093,51.1695034 60,51 C60.4452813,51.218929 60.8972087,51.4322655 61.355782,51.6400093 C61.5860656,51.7430637 61.8176783,51.8449522 62.0562694,51.9424108 C62.1054497,51.9617626 62.1536331,51.9808813 62.2021489,52 C62.4433983,51.9708557 62.6886354,51.9403124 62.9325432,51.9093029 L63,51.9009093 Z" id="Path" fill="#C58877"></path>
                                <path d="M61,52.8146479 L60,52 L60.54613,53 C60.6134159,52.9746479 60.6840041,52.9464789 60.7568627,52.9171831 L61,52.8146479 Z" id="Path" fill="#C58877"></path>
                                <path d="M26.0000647,27 C27.3321037,27 27.3345193,25 26.0000647,25 C24.6676806,25 24.66561,27 26.0000647,27" id="Path" fill="#F15B43"></path>
                                <path d="M39.4317817,55 L37,55.1339543 C37,55.1339543 39.164259,58.1807019 42,56.4880327 C42,56.4880327 40.5553772,56.8468591 39.4317817,55" id="Path" fill="#CF2633"></path>
                                <path d="M29.6343781,80 C29.6343781,80 30.7929903,88.5008237 29.5361906,96.4349259 C28.2793909,104.369028 27.6905933,120.502883 28.1615659,123 L30.4002404,123 C30.4002404,123 31.5784901,104.298188 32.7881599,95.3723229 C33.9975023,86.446458 29.6343781,80 29.6343781,80" id="Path" fill="#CF2633"></path>
                                <path d="M32.8277128,95 L32.5620175,94.9630269 C33.5337914,85.8927127 30.035305,79.2254201 30,79.1592264 L30.2285613,79 C30.2643885,79.0670883 33.8112533,85.8199543 32.8277128,95 Z" id="Path" fill="#303443"></path>
                                <path d="M97.2111562,58.7047536 C97.2111562,58.7047536 91.9566732,103.255911 90,127 L95.0532834,126.825674 C96.6730868,126.769602 98.0497884,125.597129 98.3979717,123.977158 C99.4170723,119.251882 101.378695,109.136805 101.914742,99.1078476 C101.914742,99.1078476 105.688327,81.8361686 106.526901,77.6523457 C106.526901,77.6523457 109.671554,102.326173 109.881198,124.961727 C109.881198,124.961727 110.649891,126.821204 113.794544,126.606649 C116.939198,126.392094 117.07896,124.031989 117.07896,124.031989 C117.07896,124.031989 119.739977,58.9449361 116.015892,58 L97.2111562,58.7047536 Z" id="Path" fill="#FFCC5D"></path>
                                <path d="M118,69 C117.733731,62.6211385 117.198283,58.2369964 116.239715,58 L110,58.2279928 C110,58.2279928 112.447346,66.0738501 118,69" id="Path" fill="#F39821"></path>
                                <path d="M117.870155,69 C115.098605,67.3995169 113.148225,64.3907733 112,62.1485502 L112.242848,62 C113.3726,64.2062872 115.288483,67.1651034 118,68.730819 L117.870155,69 Z" id="Path" fill="#303443"></path>
                                <polygon id="Path" fill="#F39821" points="107 77.5353804 105.960256 69 105 85"></polygon>
                                <path d="M91,47.0451802 C91,47.0451802 93.3856725,31.7177327 95,29.4674962 C96.6137427,27.2175526 100.052632,24.7566769 105.561404,24.4405715 C111.070175,24.1241732 112.052632,23.6317051 116.333333,24.4405715 C120.613743,25.249145 122.719006,26.3035131 123.982456,30.1002928 C125.245614,33.8970726 127,41.3503035 127,41.3503035 C127,41.3503035 122.087427,41.9831002 118.929825,41.8421857 L117.947076,42.9671575 L118.104971,54.0909019 C118.135813,56.2045741 116.542504,57.9881724 114.442398,58.1908967 C110.214035,58.5969412 103.281287,59.1512241 98.5421053,58.9616781 C97.8135181,58.9349369 97.1267289,58.61397 96.6380785,58.0718423 C96.1494282,57.5297147 95.9004975,56.8125577 95.9479532,56.0836253 L96.6839181,45.0764796 L91,47.0451802 Z" id="Path" fill="#F15B43"></path>
                                <path d="M119,41.8525896 C119,41.8525896 117.4,34.4840637 117,34 L118.066667,43 L119,41.8525896 Z" id="Path" fill="#CF2633"></path>
                                <path d="M104.194961,11.2744213 C104.194961,11.2744213 103.539675,21.2084714 104.631819,21.8121982 C105.723963,22.415925 105.997,22.1960831 105.997,22.1960831 L105.997,26.2346495 C105.997313,26.8817673 106.349707,27.4768999 106.915472,27.7857931 C107.481237,28.0946864 108.169776,28.0678758 108.710068,27.7159146 C109.683983,27.1016804 110.619707,26.4283007 111.512025,25.6995281 C111.930546,25.3361682 112.170056,24.8070406 112.167615,24.2511936 L112.167615,17.5861106 C112.167615,17.5861106 113.751225,15.1163191 112.549866,14.1280976 C111.348507,13.1404859 110.911953,15.7749302 110.802435,17.3662687 C110.395439,16.8494533 110.165582,16.2142447 110.147148,15.5553932 C110.147148,14.5125923 110.092541,11 110.092541,11 C110.092541,11 104.467997,13.0307174 104.194961,11.2744213" id="Path" fill="#E9A48A"></path>
                                <path d="M105.561404,15 C105.561404,15 104.684211,16.1444965 105.122807,16.7471978 C105.209279,16.9028194 105.377881,17 105.561404,17 C105.744926,17 105.913528,16.9028194 106,16.7471978" id="Path" fill="#C58877"></path>
                                <path d="M105,18 L107,18 C107,18 106.0625,20.25 105,18" id="Path" fill="#303443"></path>
                                <path d="M108.5,15 C108.778869,14.9907679 109,14.7696371 109,14.5 C109,14.2303629 108.778869,14.0092321 108.5,14 C108.221131,14.0092321 108,14.2303629 108,14.5 C108,14.7696371 108.221131,14.9907679 108.5,15" id="Path" fill="#303443"></path>
                                <path d="M104.5,15 C104.778899,14.9906662 105,14.7695656 105,14.5 C105,14.2304344 104.778899,14.0093338 104.5,14 C104.221101,14.0093338 104,14.2304344 104,14.5 C104,14.7695656 104.221101,14.9906662 104.5,15" id="Path" fill="#303443"></path>
                                <path d="M106,21.596565 C106,21.596565 108.849011,21.2774886 110,20 C110,20 108.191781,24.5773717 106,23.9389231 L106,21.596565 Z" id="Path" fill="#C58877"></path>
                                <path d="M112.393322,8.7545552 C111.685987,7.91425509 108.577086,7.70418006 105.956494,8.49196141 C103.336187,9.27974277 104.105202,11.170418 104.105202,11.170418 L104.583802,11.7244909 C105.939646,12.2715613 109.656506,10.9078242 109.656506,10.9078242 C109.656506,10.9078242 109.707907,14.2690247 109.707907,15.266881 C109.725292,15.8974182 109.941647,16.5053315 110.324719,17 C110.42752,15.4769561 110.838728,12.9560557 111.969549,13.9013934 C112.640903,14.4627605 112.387325,15.521597 112.071494,16.2912886 L112.073208,16.2880791 C113.410775,13.8430392 113.10037,9.59485531 112.393322,8.7545552" id="Path" fill="#303443"></path>
                                <path d="M91.1112655,47 C91.1112655,47 90.3877616,50.9600842 92.6306238,51.6428573 C94.8731846,52.3259149 97.0439979,52.0528057 99.2868602,50.6189821 C99.2868602,50.6189821 101.855299,50.7211136 101.92765,50.0386249 L102,49.3555673 L92.6306238,49.3555673 L91.1112655,47 Z" id="Path" fill="#E9A48A"></path>
                                <path d="M97.3635824,50.834822 C96.568659,50.904018 95.7789629,51.0327239 95,51.2200424 C95.7862272,51.1131829 96.5781638,51.0652033 97.3703224,51.076436 C97.8178766,51.0844225 98.2646732,51.1199107 98.7086164,51.1827343 C98.7994716,51.1199621 98.8903268,51.0574859 98.9814515,50.98968 C98.9814515,50.98968 99.3357058,51.0053731 99.7694921,50.9825737 L100,50.9671767 C99.1325402,50.7751353 98.243377,50.7304971 97.3635824,50.834822" id="Path" fill="#C58877"></path>
                                <path d="M96,50.8937017 L97.2943586,51.139461 C97.5289518,51.0541855 97.7642897,50.9629881 98,50.860539 L96,50.8937017 Z" id="Path" fill="#C58877"></path>
                                <polygon id="Path" fill="#FFCC5D" points="91 46.6131068 91.3026375 31 113 31 113 49 92.5192163 49"></polygon>
                                <path d="M118.937759,41.9563095 L118.937759,43.3336815 L113.711725,40.4917621 L113.711725,37.1000563 C113.711725,36.7216041 113.466634,36.3868135 113.106086,36.2727614 L109.077976,35 C109.077976,35 108.799254,37.798041 109.295727,38.269079 C109.7922,38.7395358 112.405217,40.0471674 112.431347,40.6486779 C112.457477,41.2501885 112.379087,44.0223674 112.379087,44.0223674 L118.065301,49.0021192 L123.343885,53.5175164 C125.700826,55.1851825 128.490077,52.2171494 127.926536,49.3839476 L126.577058,41.5137489 L118.937759,41.9563095 Z" id="Path" fill="#E9A48A"></path>
                                <polygon id="Path" fill="#C58877" points="119 43.3166667 126 46 119 42"></polygon>
                                <polygon id="Path" fill="#C58877" points="114 41 114 42 115 41.3660714"></polygon>
                                <path d="M111.978278,37.4055432 C111.627598,37.2258681 111.27348,37.0538388 110.918112,36.8840395 C110.282388,36.5810768 109.6426,36.2889455 109,36 C109.001875,36.1694807 109.007814,36.33705 109.017503,36.4995221 C109.621972,36.6995859 110.226442,36.9009239 110.826535,37.1134119 C111.195968,37.2443453 111.564463,37.3775088 111.92952,37.5189551 C112.298356,37.6499644 112.656323,37.8108253 113,38 C112.675456,37.7745036 112.333801,37.5757224 111.978278,37.4055432" id="Path" fill="#C58877"></path>
                                <path d="M113,37 C112.864229,36.8547123 112.703282,36.7369854 112.525498,36.6529174 C112.354351,36.5560222 112.18059,36.4642268 112.005376,36.3754312 C111.655238,36.1981401 111.301322,36.0289486 110.946244,35.8633568 C110.30786,35.5663717 109.665989,35.280786 109.020631,35 C109.012495,35.139193 109.005811,35.2939853 109,35.4565772 C109.622984,35.6572671 110.245097,35.8636568 110.863141,36.080246 C111.230713,36.2089396 111.597414,36.3415329 111.960628,36.4822259 C112.142234,36.5530223 112.322679,36.6262187 112.500799,36.7051147 C112.683538,36.7704507 112.852843,36.8704619 113,37" id="Path" fill="#C58877"></path>
                                <polygon id="Rectangle" fill="#82C56D" transform="translate(96.464215, 40.284505) rotate(-89.664290) translate(-96.464215, -40.284505) " points="87.2197469 39.1016731 105.7087 39.1015357 105.708683 41.4673359 87.2197293 41.4674734"></polygon>
                                <rect id="Rectangle" fill="#82C56D" x="91" y="44" width="22" height="2"></rect>
                                <path d="M107,31 C107,31 108.616145,30.1515152 108.930979,30 C109.023007,30.3310347 109.023007,30.6689653 108.930979,31 L107,31 Z" id="Path" fill="#CF2633"></path>
                                <path d="M92,38.3839305 C91.0066171,38.7607867 90.0871492,39.3467243 89.2913655,40.1100276 C88.2200463,41.244647 86.7593377,42.2228111 84.3440983,43 L84.9756098,41.9537842 L84,41.2169811 C84,41.2169811 86.5046822,40.8544626 88.2351433,39.1827433 C89.9653196,37.510706 90.7674559,37.1141615 91.0864874,37 L92,38.3839305 Z" id="Path" fill="#F15B43"></path>
                                <path d="M83.9877276,42.1017088 L83.7943268,41.9708346 C83.7943268,41.9708346 83.9483969,41.9507001 84.2056732,41.8982912 L83.9877276,42.1017088 Z" id="Path" fill="#CF2633"></path>
                                <path d="M92,38.62479 C92,38.62479 91.7885391,38.7517267 91.4874899,39 C91.4443099,38.9540788 91.4033495,38.9059175 91.3640032,38.8585029 C91.0320823,38.461639 91.1317595,38.1946985 91,37.2889677 C91.1126728,37.1731059 91.2307916,37.0763873 91.3529056,37 L92,38.62479 Z" id="Path" fill="#CF2633"></path>
                                <path d="M101.40025,35 C102.35244,34.3949629 103.408498,33.9829873 104.51138,33.7863259 C106.075302,33.5888382 107.788141,32.9635648 110,31.4055372 L108.800162,31.2858571 L108.918991,30 C108.918991,30 106.95178,31.8933192 104.544506,32.3123555 C102.137536,32.7320167 101.300567,33.1632398 101,33.3616649 L101.40025,35 Z" id="Path" fill="#F15B43"></path>
                                <path d="M101,33.38503 C101.203531,33.2242881 101.420637,33.0950778 101.646947,33 C101.897636,33.397967 102.036385,33.4928384 101.991703,33.9989219 C101.979491,34.1974368 101.946493,34.3928089 101.893638,34.5795472 C101.537123,34.8099492 101.309716,35 101.309716,35 L101,33.38503 Z" id="Path" fill="#CF2633"></path>
                                <path d="M94.2202652,35.3178748 C94.2202652,35.3178748 92.0194267,34.7143752 90.7976389,35.1704724 C89.5761626,35.6265696 89.9999401,35.9037996 90.4788709,37.0079006 C90.9578018,38.1117181 90.6044462,38.3316879 91.2229743,38.6953751 C91.8411909,39.0590623 92.6924851,39.5106241 95.1145603,37.331619 C97.5372587,35.1531809 94.2202652,35.3178748 94.2202652,35.3178748" id="Path" fill="#F15B43"></path>
                                <path d="M91,35 L90,36 C90.038878,35.6248021 90.3174213,35.3319261 91,35" id="Path" fill="#CF2633"></path>
                                <path d="M91.0665951,36 L91,35.8779102 C91.4849661,35.0166499 92.9383268,35 93,35 L93,35.1709201 C92.9854964,35.1709201 91.5241105,35.18757 91.0665951,36 Z" id="Path" fill="#CF2633"></path>
                                <path d="M92.0428521,38.9735481 C91.5813286,37.3108594 95,37 95,37 C93.4599567,38.8024391 92.6094636,39.1034137 92.0428521,38.9735481" id="Path" fill="#CF2633"></path>
                                <path d="M96.6636529,33.9269513 C96.6636529,33.9269513 97.4691367,31.8655407 98.5243741,31.2592969 C99.5796115,30.6527502 99.5485336,31.1593167 100.121215,32.2694003 C100.69418,33.3791808 101.066832,33.2634461 100.989985,33.9748206 C100.912855,34.6861951 100.769049,35.6314628 97.6965707,35.967457 C94.6238097,36.3034511 96.6636529,33.9269513 96.6636529,33.9269513" id="Path" fill="#F15B43"></path>
                                <path d="M101,34.4484082 C100.425909,33.2297447 98.9657273,34.7956048 98.3177273,35.5898764 C98.1216364,35.8302432 98,36 98,36 C100.040545,35.7212184 100.738727,35.0926792 101,34.4484082" id="Path" fill="#CF2633"></path>
                                <path d="M98,34.5915022 C98.302735,34.4987809 98.5761147,34.2925623 98.7841421,34 C98.6511639,34.2872948 98.53283,34.5849871 98.4298595,34.891268 C98.3879608,35.0896621 98.5218775,35.0234192 99,34.8323854 C99,34.8323854 98.3237868,35.3616594 98.3439406,36 L98,34.5915022 Z" id="Path" fill="#CF2633"></path>
                                <path d="M94.1451755,36 C93.813315,36.1913587 93.4141405,36.3009799 93,36.3144876 C93.3462724,36.3577392 93.6885964,36.4180237 94.0248721,36.4949715 C94.222085,36.5642838 94.0548598,36.6360424 93.4942671,36.9154662 C93.4942671,36.9154662 94.4976186,36.6539821 95,37 L94.1451755,36 Z" id="Path" fill="#CF2633"></path>
                                <path d="M97,36.7427553 C97,36.7427553 97.863843,37.0849816 98.8141701,39 C98.8141701,39 99.0945781,38.9458372 99.0872602,38.0550828 C99.4037609,38.0619665 99.7150989,38.1396325 100,38.2827737 C100,38.2827737 99.0709613,36.3373965 97.8119525,36 L97,36.7427553 Z" id="Path" fill="#F15B43"></path>
                                <path d="M99.9239481,37 C99.9183876,36.9920462 99.3727399,36.1895218 99,36.0806366 L99.0269185,36 C99.43096,36.1179372 99.9768983,36.9207367 100,36.9550209 L99.9239481,37 Z" id="Path" fill="#CF2633"></path>
                                <path d="M96.3705816,37 C96.3705816,37 96.0582691,37.807974 97,39.5465826 C97,39.5465826 96.7606956,39.7171481 96.021765,39.2204028 C95.8086265,39.4510293 95.6579698,39.7169158 95.580029,40 C95.580029,40 94.5992129,38.2601709 95.1884401,37.171786 L96.3705816,37 Z" id="Path" fill="#F15B43"></path>
                                <path d="M96.0710455,39 C96.0571822,38.9708783 95.733162,38.2828413 95.8850644,38 L95.9682356,38.0234643 C95.827884,38.2843087 96.1519042,38.9721355 96.1553701,38.9790501 L96.0710455,39 Z" id="Path" fill="#CF2633"></path>
                                <path d="M95.0904965,37.2318781 L96,37 C95.9583322,37.2641911 95.9478762,37.5367383 95.969078,37.8060132 C95.8744297,37.9271241 95.753365,37.9958249 95.627234,38 C95.3935942,37.9919364 95.1702323,37.85891 95,37.6264415 C95.021582,37.4910937 95.0518808,37.3589913 95.0904965,37.2318781" id="Path" fill="#CF2633"></path>
                                <path d="M97.6829882,36 C97.7928239,36.0333973 97.8991241,36.080325 98,36.1399491 C97.993612,36.3290731 97.9425843,36.5127608 97.8522664,36.6717557 C97.7460006,36.8446432 97.5838342,36.962661 97.4012311,37 C97.2832363,36.8711333 97.1477589,36.7647034 97,36.6847964 L97.6829882,36 Z" id="Path" fill="#CF2633"></path>
                                <path d="M97.8276452,35.8831198 C98.0134835,35.5818436 98.0508053,35.2275078 97.931017,34.9017018 C97.8768588,34.5546056 97.6409095,34.2492186 97.2925443,34.0753328 C97.0380501,33.9711928 96.742784,33.975212 96.4921333,34.0862281 C96.3285947,34.1731114 96.3455566,34.2569217 96.1266517,34.4044277 C95.9632706,34.5122879 95.7760623,34.5894313 95.5768292,34.6309947 C95.1441399,34.728494 94.8861906,34.7086589 94.5859964,34.7871612 C94.3124522,34.852972 94.1054776,35.0487013 94.0521757,35.2919782 C93.9286882,35.6843828 94.0272658,36.104672 94.3174859,36.4231371 C94.3808531,36.50136 94.7943401,37.0128819 95.3588844,36.9997516 C95.6878818,36.9924881 95.7435681,36.8142516 96.295951,36.5304143 C97.157809,36.0870581 97.5428128,36.2538405 97.8276452,35.8831198" id="Path" fill="#F15B43"></path>
                                <path d="M94.9912077,37.0557723 C93.4880243,38.7609132 92.6266801,39.0873766 92.044568,38.9822263 L92,38.9502549 L95,37 L94.9912077,37.0557723 Z" id="Path" fill="#CF2633"></path>
                                <path d="M100.965281,35.0130921 C100.965281,35.0130921 100.977961,35.0080933 101,35 C100.734024,35.4049036 100.0318,35.802428 98,36 L98.1056657,35.8483694 L99.7135957,35.3549155 L100.965281,35.0130921 Z" id="Path" fill="#CF2633"></path>
                                <path d="M110,38 C110,38 113.090625,45.7774536 112.997957,49 L112.997957,39.2445971 L110,38 Z" id="Path" fill="#F39821"></path>
                                <path d="M112.592109,46 L113,46 L113,44 L112,44 C112.218709,44.66925 112.423308,45.349 112.592109,46" id="Path" fill="#4DA258"></path>
                                <rect id="Rectangle" fill="#4DA258" x="97.7538118" y="44" width="1" height="2"></rect>
                                <rect id="Rectangle" fill="#4DA258" x="94.7538118" y="44" width="1" height="2"></rect>
                                <polygon id="Rectangle" fill="#303443" transform="translate(108.312224, 93.876647) rotate(-5.116770) translate(-108.312224, -93.876647) " points="108.165381 84.654392 108.461145 84.6543586 108.459066 103.098902 108.163302 103.098936"></polygon>
                                <rect id="Rectangle" fill="#303443" x="97.8521401" y="37" width="1" height="10"></rect>
                                <polygon id="Rectangle" fill="#303443" transform="translate(124.984434, 41.477723) rotate(-3.583310) translate(-124.984434, -41.477723) " points="122.487283 41.3298742 127.481608 41.3294784 127.481585 41.6255725 122.48726 41.6259683"></polygon>
                                <rect id="Rectangle" fill="#303443" x="95" y="30.8519522" width="4" height="1"></rect>
                            </g>
                        </g>
                    </g>
                </g>
            </g>
        </g>
    </g>
</svg>