<?xml version="1.0" encoding="UTF-8"?>
<svg width="26px" height="9px" viewBox="0 0 26 9" version="1.1" xmlns="http://www.w3.org/2000/svg" xmlns:xlink="http://www.w3.org/1999/xlink">
    <!-- Generator: Sketch 52.5 (67469) - http://www.bohemiancoding.com/sketch -->
    <title>icons8-menu</title>
    <desc>Created with Sketch.</desc>
    <g id="Page-1" stroke="none" stroke-width="1" fill="none" fill-rule="evenodd">
        <g id="Dashboard-Light" transform="translate(-350.000000, -20.000000)" fill="#1D1D1D" fill-rule="nonzero">
            <g id="icons8-menu" transform="translate(350.000000, 20.000000)">
                <path d="M1.01424249,0.000100431844 C0.653606573,-0.0049998577 0.318161125,0.184475728 0.136354768,0.495973282 C-0.0454515892,0.807470835 -0.0454515892,1.19273003 0.136354768,1.50422758 C0.318161125,1.81572514 0.653606573,2.00520072 1.01424249,2.00010043 L25.0142425,2.00010043 C25.3748784,2.00520072 25.7103239,1.81572514 25.8921302,1.50422758 C26.0739366,1.19273003 26.0739366,0.807470835 25.8921302,0.495973282 C25.7103239,0.184475728 25.3748784,-0.0049998577 25.0142425,0.000100431844 L1.01424249,0.000100431844 Z M0.780442676,7.00010043 C0.502939355,6.99500014 0.244819678,7.18447573 0.104922719,7.49597328 C-0.0349742397,7.80747084 -0.0349742397,8.19273003 0.104922719,8.50422758 C0.244819678,8.81572514 0.502939355,9.00520072 0.780442676,9.00010043 L19.2480423,9.00010043 C19.5255456,9.00520072 19.7836653,8.81572514 19.9235623,8.50422758 C20.0634592,8.19273003 20.0634592,7.80747084 19.9235623,7.49597328 C19.7836653,7.18447573 19.5255456,6.99500014 19.2480423,7.00010043 L0.780442676,7.00010043 Z" id="Shape"></path>
            </g>
        </g>
    </g>
</svg>